<svg xmlns="http://www.w3.org/2000/svg" width="1271.891" height="1516.186" viewBox="0 0 1271.891 1516.186">
  <g id="Groupe_136" data-name="Groupe 136" transform="translate(-132.362 -28.892)">
    <g id="Shadows" transform="translate(230.092 1174.828)">
      <ellipse id="Shadow" cx="137.236" cy="79.233" rx="137.236" ry="79.233" transform="translate(0 0)" fill="#e0e0e0"/>
      <ellipse id="Shadow-2" data-name="Shadow" cx="216.922" cy="125.24" rx="216.922" ry="125.24" transform="translate(546.982 119.77)" fill="#e0e0e0"/>
    </g>
    <g id="Character_2" data-name="Character 2" transform="translate(698.219 271.518)">
      <g id="Character" transform="translate(0 211.422)">
        <g id="Groupe_10" data-name="Groupe 10" transform="translate(147.907 359.556)">
          <g id="Groupe_6" data-name="Groupe 6" transform="translate(171.145 470.594)">
            <path id="Tracé_12" data-name="Tracé 12" d="M437.916,424.835l-37.977-4.364L390.1,343.91l46.444,13.773Z" transform="translate(-353.978 -343.91)" fill="#b16668"/>
            <g id="Groupe_5" data-name="Groupe 5" transform="translate(0 60.161)">
              <path id="Tracé_13" data-name="Tracé 13" d="M381.954,421.353c-1.17,1.1-.88,7.436.648,9.282,3.918,4.737,14.61,10.281,28.956,11.309,13.706.982,25.948-.868,33.995-5.976s11.948-10.75,12.7-18.556-.11-15.344,3.612-21.353c3.436-5.548,8.915-11.806,10.11-14.814,2.593-6.547.09-15.9.09-15.9Z" transform="translate(-381.236 -338.139)" fill="#263238"/>
              <path id="Tracé_14" data-name="Tracé 14" d="M419.186,373.706a30.18,30.18,0,0,1-1.577,8.7,79.729,79.729,0,0,1-8.4,17.175,70.418,70.418,0,0,1-5.715,8.068c-4.146,4.933-9.3,8.985-13.689,13.718s-8.116,10.469-8.463,16.828c-.583,10.75,16.559,14.4,25.544,16a65.974,65.974,0,0,0,29.2-1.468c10.42-2.959,17.937-11.031,19.665-21.426.5-2.984.31-6.038.665-9.042.807-6.853,4.354-13.11,8.361-18.809,2.328-3.306,4.855-6.531,6.417-10.236,2.8-6.657.554-14.146-1.235-20.774-1.549-5.728-3.436-12.3-5.45-11.761-.024,2.968.147,3.371-1.985,5.385-2.694,2.544-2.813,6.372-5.658,8.622a39.392,39.392,0,0,0,2-7.647,4.379,4.379,0,0,0-.6-3.041,8.024,8.024,0,0,0-3.3-1.761,65.884,65.884,0,0,0-13.057-2.972c-4.056-.5-14.191-.995-18.214-.094a5.529,5.529,0,0,0-3.2,1.855,6.391,6.391,0,0,0-1.141,3.673C419.145,366.413,419.28,370.852,419.186,373.706Z" transform="translate(-380.951 -358.668)" fill="#455a64"/>
              <path id="Tracé_15" data-name="Tracé 15" d="M387.939,375.7c4-3,18.447-3.041,23.351-2.515a29.739,29.739,0,0,1,13.942,4.9,3.183,3.183,0,0,0,4.105-.326h0a2.994,2.994,0,0,0-.3-4.57,30.263,30.263,0,0,0-15.691-5.813,79.261,79.261,0,0,0-21.084,1.219S386.753,372.129,387.939,375.7Z" transform="translate(-361.127 -332.53)" fill="#f5f5f5"/>
              <path id="Tracé_16" data-name="Tracé 16" d="M385.554,378.157c5.035-2.976,20.375-2.548,25.279-2.022a27.956,27.956,0,0,1,13.563,5.157,3.187,3.187,0,0,0,4.105-.322h0a2.994,2.994,0,0,0-.305-4.57c-2.992-2.2-14.219-5.764-21.5-6.278-12.071-.848-15.218,1.618-15.218,1.618S386.386,373.709,385.554,378.157Z" transform="translate(-367.951 -323.976)" fill="#f5f5f5"/>
              <path id="Tracé_17" data-name="Tracé 17" d="M412.845,364.633c-8.341-.86-17.35.073-20.648,1.272-2.128,1.194-3.526,4.553-2.157,5.406,2.687-1.492,13-2.112,18.924-1.847,3.979.175,8.989,1.785,13.053,3.583,1.035.461,2.254,1.1,3.327,1.7a2.862,2.862,0,0,0,3.971-1.235h0a2.679,2.679,0,0,0-1.044-3.449A38.725,38.725,0,0,0,412.845,364.633Z" transform="translate(-355.821 -341.348)" fill="#f5f5f5"/>
            </g>
          </g>
          <g id="Groupe_8" data-name="Groupe 8" transform="translate(0 433.619)">
            <path id="Tracé_18" data-name="Tracé 18" d="M394.336,417.928l-36.119-10.09v-73l44.806,1.942Z" transform="translate(-280.909 -334.84)" fill="#b16668"/>
            <g id="Groupe_7" data-name="Groupe 7" transform="translate(0 58.317)">
              <path id="Tracé_19" data-name="Tracé 19" d="M340.018,382.832c-1.125,2.352-.8,6.771.538,9.568s15.96,11.047,35.69,9.719a82.1,82.1,0,0,0,40.794-14.26c7.525-4.978,15.352-5.911,25.124-6.47s22.6-5.43,24.741-10-.322-12.442-.322-12.442Z" transform="translate(-339 -318.979)" fill="#263238"/>
              <path id="Tracé_20" data-name="Tracé 20" d="M419.887,351.426c-.514-.11-1.035-.216-1.561-.322a6.12,6.12,0,0,0-2.6-.139,5.032,5.032,0,0,0-2.438,1.643c-2.12,2.3-3.4,5.238-5.039,7.909-4.134,6.747-12.817,12.332-22.295,17.431-6.445,3.465-12.76,6.151-19.417,9.144-6.787,3.053-15.8,4.916-21.109,8.5-7.741,5.218-8.74,18.328.081,23.505,7.607,4.468,27.627,9.307,48.625,3.359,11.439-3.241,24.137-15.462,39.147-16.637,9.551-.746,27.6-3.428,33.75-10.681,2.271-3.212-.762-13.408-3.253-22.205-2.719-9.6-5.3-24.594-8.487-23.75a4.367,4.367,0,0,1-1.663,3.587c-1.174,1.219-2.76,1.993-4.044,3.09-2.36,2.014-3.812,4.863-5.279,7.595a5.674,5.674,0,0,1-2.711,2.939c-1.61.6-2.813-.412-4.223-1.056a8.193,8.193,0,0,0-5.7-.408,35.652,35.652,0,0,1,1-5.638,3.28,3.28,0,0,0,.143-1.818,2.93,2.93,0,0,0-1.223-1.374A30.61,30.61,0,0,0,419.887,351.426Z" transform="translate(-339.253 -349.146)" fill="#455a64"/>
              <path id="Tracé_21" data-name="Tracé 21" d="M352.9,358.594s1.37-3.661,7.048-4.721c4.346-.807,12.018,2.4,16.787,6.327a3.563,3.563,0,0,1-.514,5.883h0a3.552,3.552,0,0,1-4.069-.452C369.023,362.911,362.011,357.966,352.9,358.594Z" transform="translate(-297.28 -334.985)" fill="#f5f5f5"/>
              <path id="Tracé_22" data-name="Tracé 22" d="M349.593,360.037a10.187,10.187,0,0,1,8.353-4.3s11.345.326,18.365,6.873a3.479,3.479,0,0,1-.477,5.687h0a3.4,3.4,0,0,1-3.918-.453C368.753,365.014,362.41,359.079,349.593,360.037Z" transform="translate(-307.442 -328.886)" fill="#f5f5f5"/>
              <path id="Tracé_23" data-name="Tracé 23" d="M345.946,361.39a11.428,11.428,0,0,1,8.679-3.889s10.566.4,17.591,6.942a3.485,3.485,0,0,1-.481,5.691h0a3.4,3.4,0,0,1-3.918-.456C364.653,366.852,358.767,360.432,345.946,361.39Z" transform="translate(-318.662 -323.444)" fill="#f5f5f5"/>
            </g>
          </g>
          <g id="Groupe_9" data-name="Groupe 9" transform="translate(73.868)">
            <path id="Tracé_24" data-name="Tracé 24" d="M530.277,268.822c2.483,75.3,2.658,238.362,2.658,238.362.795,9.368,1.6,26.025,2.3,59.767,1.015,48.935,3.351,169.7,3.351,169.7s-23.347,10.962-44.757,2.038c0,0-29.841-169.822-35.947-218.26C452.553,478.154,442.316,379,442.316,379L428.191,504.876s.159,32.413-1.9,61.381c-1.594,22.4-23.342,137.907-23.342,137.907a74.78,74.78,0,0,1-43.167-1.431s-1.989-177.3-2.385-197.857c-.448-23.436,5.585-276.4,5.585-276.4Z" transform="translate(-357.373 -228.472)" fill="#455a64"/>
            <path id="Tracé_25" data-name="Tracé 25" d="M418.885,314.392l-5.361-42.674s-22.429-4.545-48.536-22.246c0,0,10.342,13.86,40.676,28.524l6.849,38.719L404.76,440.265Z" transform="translate(-333.942 -163.861)" fill="#37474f"/>
          </g>
        </g>
        <g id="Groupe_12" data-name="Groupe 12" transform="translate(0 165.639)">
          <path id="Tracé_26" data-name="Tracé 26" d="M528.381,202.532c-11.011,14.443-67.667,92.147-67.667,92.147l-52.29-40.525c-12.376-9.6-15.862-22.156-23.538-30.8s-16.046-10.778-24.639-18.039-11.92-12.76-14.851-6.58,6.555,17.012,8.206,19.645,11.418,8.826-1.565,8.3-37.888-15.511-43.929-18.239-6.18,4.729-3.363,9.625,1.459,18.524,4.769,27.3,9.238,14.121,21.178,20.057c11.121,5.532,38.2,9.005,47,14.562h0c19.3,19.775,55.76,56.77,64.969,63.6,12.69,9.413,24.957,18.1,44.353-.554s75.629-91.947,75.629-91.947l11.631-69.64C555.144,180.567,541.651,185.129,528.381,202.532Z" transform="translate(-302.971 -179.566)" fill="#b16668"/>
          <path id="Tracé_27" data-name="Tracé 27" d="M341.666,212.325c7.179,5.291,14.643,17.2,15.352,22.527,0,0,.864-14.223-12.275-26.746Z" transform="translate(-183.923 -97.213)" fill="#9a4a4d"/>
          <g id="Groupe_11" data-name="Groupe 11" transform="translate(172.235)">
            <path id="Tracé_28" data-name="Tracé 28" d="M448.717,180.906s-26.889-.359-38.732,7.933-20.583,20.269-39.8,48.328c-16.836,24.594-24.969,36.192-24.969,36.192s14.076,23.84,45.715,34.9l50.219-62.217Z" transform="translate(-345.221 -180.903)" fill="#37474f"/>
          </g>
        </g>
        <path id="Tracé_29" data-name="Tracé 29" d="M460.477,180.722c15.263,1.48,36.62,1.655,51.768,3.188,10.493,4.321,30.688,21.924,29.184,34.492-5.613,46.917-17,123.834-17,123.834l3.751,81.466c-20.99,20.941-119.252,29.123-169.859-4.395,0,0,1.639-146.431,5.112-171.119,6.245-44.386,11.716-60.859,34.614-64.789S460.477,180.722,460.477,180.722Z" transform="translate(-132.679 -16.406)" fill="#878787"/>
        <g id="Groupe_14" data-name="Groupe 14" transform="translate(360.757 166.399)">
          <path id="Tracé_30" data-name="Tracé 30" d="M439.2,202.822c11.011,14.443,67.667,92.147,67.667,92.147l52.29-40.529c12.376-9.592,15.862-22.152,23.538-30.8s16.045-10.774,24.639-18.039,11.92-12.756,14.851-6.576-6.555,17.008-8.206,19.645-11.419,8.826,1.566,8.3,37.888-15.511,43.929-18.239,6.18,4.729,3.363,9.625-1.459,18.524-4.769,27.3-9.238,14.117-21.178,20.057c-11.121,5.532-38.2,9-47,14.562h0c-19.3,19.776-55.759,56.77-64.969,63.6-12.69,9.413-24.957,18.1-44.353-.554s-63.762-76.64-63.762-76.64l-23.5-84.952C412.436,180.858,425.93,185.419,439.2,202.822Z" transform="translate(-385.809 -179.442)" fill="#b16668"/>
          <path id="Tracé_31" data-name="Tracé 31" d="M432.757,212.613c-7.179,5.291-14.643,17.2-15.352,22.527,0,0-.864-14.223,12.275-26.747Z" transform="translate(-311.7 -97.086)" fill="#9a4a4d"/>
          <g id="Groupe_13" data-name="Groupe 13">
            <path id="Tracé_32" data-name="Tracé 32" d="M396.374,181.172s24.17-1.5,36.893,8.267c11.467,8.8,20.583,20.269,39.8,48.328,16.836,24.59,24.969,36.188,24.969,36.188s-14.077,23.844-45.715,34.9L418.2,266.593C400.287,244.009,382.628,209.635,396.374,181.172Z" transform="translate(-391.466 -181.09)" fill="#37474f"/>
          </g>
        </g>
        <g id="Groupe_17" data-name="Groupe 17" transform="translate(236.998)">
          <g id="Groupe_15" data-name="Groupe 15">
            <path id="Tracé_33" data-name="Tracé 33" d="M455.7,188.885A47.3,47.3,0,1,1,407.99,142,47.3,47.3,0,0,1,455.7,188.885Z" transform="translate(-361.108 -134.946)" fill="#263238"/>
            <path id="Tracé_34" data-name="Tracé 34" d="M407.724,161.677s-7.35,36.074-10.371,42.017a16.294,16.294,0,0,1-9.356,7.68l.314-25.336Z" transform="translate(-278.38 -74.416)" fill="#263238"/>
            <path id="Tracé_35" data-name="Tracé 35" d="M393.652,149.155a17.738,17.738,0,0,1,14.733,5.035c6.364,6.4,3.017,26.62-4.664,46.461L389.3,202.436Z" transform="translate(-274.377 -113.39)" fill="#263238"/>
            <path id="Tracé_36" data-name="Tracé 36" d="M465.915,218.717c2.911,1.7,6.991-3.893,10.53-7.66s15.145-8.973,21.064,3.229c6.033,12.429-4.876,29.021-14.023,31.981-15.768,5.1-18.23-5.022-18.23-5.022l-.652,58.788h0c-19.441,25.377-74.01,23.726-51.512-2.8l-.106-17.358s-14.3,2.3-21.3,1.28c-11.643-1.7-19.038-10.807-22.678-23.363-5.842-20.163-8.133-36.469-3.677-76.269,4.888-43.623,55.568-44.52,83.089-27.533S465.915,218.717,465.915,218.717Z" transform="translate(-355.324 -129.622)" fill="#b16668"/>
            <path id="Tracé_37" data-name="Tracé 37" d="M470.685,234.238c1.455.012,6.91-9.221,10.485-12.531,4.953-4.586-1.847-45.67-1.847-45.67a19.964,19.964,0,0,0-3.632-22.181c-6.906-7.468-16.526-16.575-47.533-12.633-22.1,2.809-46.118,9.918-65.657.534-2.809,12.128-.338,25.613,11.839,35.071,0,0,7.085,4.48,25.625,6.571s47.366-.848,51.3-1.423c5.365-.783,6.559,4.415,9.576,18.61C463.5,213.048,465.789,234.186,470.685,234.238Z" transform="translate(-360.049 -140.272)" fill="#263238"/>
            <path id="Tracé_38" data-name="Tracé 38" d="M391.22,161.151l17.419-9.547a9.648,9.648,0,0,0-13.29-4.268A10.443,10.443,0,0,0,391.22,161.151Z" transform="translate(-271.945 -122.185)" fill="#263238"/>
            <path id="Tracé_39" data-name="Tracé 39" d="M375.252,194.4s25.911-5.459,34.94-10.359c6.046-3.282,11-8.924,12.438-12.523a40.941,40.941,0,0,1-7,14.7c-6.563,8.54-40.317,15.083-40.317,15.083Z" transform="translate(-317.591 -44.146)" fill="#9a4a4d"/>
          </g>
          <g id="Groupe_16" data-name="Groupe 16" transform="translate(11.408 60.645)">
            <path id="Tracé_40" data-name="Tracé 40" d="M374.736,165.235a5.2,5.2,0,1,0,5.153-5.467A5.288,5.288,0,0,0,374.736,165.235Z" transform="translate(-330.587 -140.934)" fill="#263238"/>
            <path id="Tracé_41" data-name="Tracé 41" d="M387.656,160.689l-11.569-5.259a6.663,6.663,0,0,0,3.273,8.63A6.2,6.2,0,0,0,387.656,160.689Z" transform="translate(-328.044 -154.28)" fill="#263238"/>
            <path id="Tracé_42" data-name="Tracé 42" d="M373.975,155.148l-10.069,7.917a6.15,6.15,0,0,0,8.834,1.264A6.73,6.73,0,0,0,373.975,155.148Z" transform="translate(-363.906 -155.148)" fill="#263238"/>
            <path id="Tracé_43" data-name="Tracé 43" d="M364.888,164.758a4.99,4.99,0,1,0,4.941-5.238A5.069,5.069,0,0,0,364.888,164.758Z" transform="translate(-360.885 -141.701)" fill="#263238"/>
            <path id="Tracé_44" data-name="Tracé 44" d="M385.858,159.768l-2.91,31.192-16.106-6.192Z" transform="translate(-354.876 -140.933)" fill="#9a4a4d"/>
            <path id="Tracé_45" data-name="Tracé 45" d="M373.684,174.056a4.988,4.988,0,1,0,4.99-4.986A4.986,4.986,0,0,0,373.684,174.056Z" transform="translate(-333.823 -112.316)" fill="#9a4a4d"/>
          </g>
        </g>
      </g>
      <g id="Question_Marks" data-name="Question Marks" transform="translate(339.421)">
        <g id="Groupe_18" data-name="Groupe 18">
          <path id="Tracé_46" data-name="Tracé 46" d="M462.346,90.1A83.351,83.351,0,0,1,484.6,98.458a64.054,64.054,0,0,1,17.7,14.064,50.688,50.688,0,0,1,10.436,18.907,44.779,44.779,0,0,1,.461,22.894,45.624,45.624,0,0,1-7,16.759,54.823,54.823,0,0,1-10.986,11.533,89.183,89.183,0,0,1-13.065,8.434q-6.867,3.62-12.984,6.869a73.627,73.627,0,0,0-11.076,7.167,21.029,21.029,0,0,0-6.926,9.27,10,10,0,0,1-3.314,4.268,5.876,5.876,0,0,1-4.965,1.011l-19.09-4.231a7.068,7.068,0,0,1-4.452-3.09,5.716,5.716,0,0,1-.828-5.185,44.8,44.8,0,0,1,7.953-16.29A62.782,62.782,0,0,1,438.2,179.472a90.361,90.361,0,0,1,13.416-8.222q6.959-3.467,12.959-6.751a58.535,58.535,0,0,0,10.228-6.955,16.2,16.2,0,0,0,5.41-8.948q2.11-9.539-4.562-17.476t-19.987-10.88q-21.347-4.733-36.119,14.4A14.558,14.558,0,0,1,416,138.2q-1.694,1.082-4.961.351l-20.338-4.5a5.689,5.689,0,0,1-3.559-2.369,5.341,5.341,0,0,1-.742-4.382,39.749,39.749,0,0,1,9.376-16.759,62.766,62.766,0,0,1,17.48-13.518A76.116,76.116,0,0,1,436.3,89.339,67.041,67.041,0,0,1,462.346,90.1ZM440.8,234.983a7.032,7.032,0,0,1,5.271,8.28l-4.9,22.1a7.021,7.021,0,0,1-8.276,5.283l-21.6-4.782a7.033,7.033,0,0,1-5.287-8.284l4.9-22.1A7.023,7.023,0,0,1,419.2,230.2Z" transform="translate(-386.232 -88.409)" fill="#ffd600"/>
        </g>
        <g id="Groupe_21" data-name="Groupe 21" transform="translate(100.822 208.776)">
          <g id="Groupe_19" data-name="Groupe 19">
            <path id="Tracé_47" data-name="Tracé 47" d="M450.34,140.395a57.547,57.547,0,0,1,16.408-.342,44.366,44.366,0,0,1,14.949,4.476,35.111,35.111,0,0,1,11.529,9.458,30.9,30.9,0,0,1,6.16,14.557,31.434,31.434,0,0,1-.2,12.54,37.618,37.618,0,0,1-4.089,10.208,61.637,61.637,0,0,1-6.217,8.752q-3.473,4.079-6.563,7.725a50.621,50.621,0,0,0-5.263,7.436,14.405,14.405,0,0,0-2.067,7.709,6.965,6.965,0,0,1-1.035,3.587,4.059,4.059,0,0,1-2.923,1.916L457.7,230.593a4.891,4.891,0,0,1-3.649-.844,3.941,3.941,0,0,1-1.859-3.115,30.887,30.887,0,0,1,.934-12.474,43.03,43.03,0,0,1,4.615-10.293,62.763,62.763,0,0,1,6.494-8.708q3.577-3.993,6.58-7.644a40.367,40.367,0,0,0,4.782-7.073,11.252,11.252,0,0,0,1.178-7.126,13.425,13.425,0,0,0-7.4-10.037q-6.311-3.375-15.6-1.859-14.9,2.434-19.474,18.479a9.913,9.913,0,0,1-1.37,3.188,4.489,4.489,0,0,1-3.082,1.5L415.66,186.9a3.923,3.923,0,0,1-2.894-.6,3.7,3.7,0,0,1-1.6-2.621,27.44,27.44,0,0,1,1.724-13.147,43.267,43.267,0,0,1,7.746-13.139,52.53,52.53,0,0,1,12.809-10.819A46.2,46.2,0,0,1,450.34,140.395Zm23.273,98.392a4.855,4.855,0,0,1,5.508,3.958l2.519,15.43a4.844,4.844,0,0,1-3.958,5.5l-15.071,2.462a4.845,4.845,0,0,1-5.508-3.954l-2.519-15.426a4.86,4.86,0,0,1,3.958-5.507Z" transform="translate(-410.964 -139.622)" fill="#ffbf00"/>
          </g>
          <g id="Groupe_20" data-name="Groupe 20" opacity="0.2">
            <path id="Tracé_48" data-name="Tracé 48" d="M450.34,140.395a57.547,57.547,0,0,1,16.408-.342,44.366,44.366,0,0,1,14.949,4.476,35.111,35.111,0,0,1,11.529,9.458,30.9,30.9,0,0,1,6.16,14.557,31.434,31.434,0,0,1-.2,12.54,37.618,37.618,0,0,1-4.089,10.208,61.637,61.637,0,0,1-6.217,8.752q-3.473,4.079-6.563,7.725a50.621,50.621,0,0,0-5.263,7.436,14.405,14.405,0,0,0-2.067,7.709,6.965,6.965,0,0,1-1.035,3.587,4.059,4.059,0,0,1-2.923,1.916L457.7,230.593a4.891,4.891,0,0,1-3.649-.844,3.941,3.941,0,0,1-1.859-3.115,30.887,30.887,0,0,1,.934-12.474,43.03,43.03,0,0,1,4.615-10.293,62.763,62.763,0,0,1,6.494-8.708q3.577-3.993,6.58-7.644a40.367,40.367,0,0,0,4.782-7.073,11.252,11.252,0,0,0,1.178-7.126,13.425,13.425,0,0,0-7.4-10.037q-6.311-3.375-15.6-1.859-14.9,2.434-19.474,18.479a9.913,9.913,0,0,1-1.37,3.188,4.489,4.489,0,0,1-3.082,1.5L415.66,186.9a3.923,3.923,0,0,1-2.894-.6,3.7,3.7,0,0,1-1.6-2.621,27.44,27.44,0,0,1,1.724-13.147,43.267,43.267,0,0,1,7.746-13.139,52.53,52.53,0,0,1,12.809-10.819A46.2,46.2,0,0,1,450.34,140.395Zm23.273,98.392a4.855,4.855,0,0,1,5.508,3.958l2.519,15.43a4.844,4.844,0,0,1-3.958,5.5l-15.071,2.462a4.845,4.845,0,0,1-5.508-3.954l-2.519-15.426a4.86,4.86,0,0,1,3.958-5.507Z" transform="translate(-410.964 -139.622)" fill="#ffbf00"/>
          </g>
        </g>
        <g id="Groupe_24" data-name="Groupe 24" transform="translate(244.751 140.336)">
          <g id="Groupe_22" data-name="Groupe 22">
            <path id="Tracé_49" data-name="Tracé 49" d="M480.7,235.768a5.746,5.746,0,0,1,1.341,7.925l-10.725,15.092a5.756,5.756,0,0,1-7.925,1.341L448.646,249.64a5.744,5.744,0,0,1-1.337-7.921l10.726-15.1a5.75,5.75,0,0,1,7.921-1.333ZM543.088,133.49a68.148,68.148,0,0,1,14.105,13.375,52.488,52.488,0,0,1,8.854,16.233,41.6,41.6,0,0,1,1.838,17.57,36.591,36.591,0,0,1-6.947,17.4,37.208,37.208,0,0,1-10.611,10.391,44.408,44.408,0,0,1-11.949,5.189,72.761,72.761,0,0,1-12.531,2.2q-6.329.538-11.973,1.04a59.884,59.884,0,0,0-10.624,1.871,17.2,17.2,0,0,0-8.169,4.778,8.167,8.167,0,0,1-3.861,2.161,4.8,4.8,0,0,1-4.06-.823L474.128,215.6a5.8,5.8,0,0,1-2.373-3.746,4.672,4.672,0,0,1,1.027-4.174,36.684,36.684,0,0,1,11.186-9.735,51.563,51.563,0,0,1,12.462-4.827,73.571,73.571,0,0,1,12.727-1.92q6.341-.4,11.912-.958A47.871,47.871,0,0,0,531,188.263a13.316,13.316,0,0,0,6.922-5.018,15.885,15.885,0,0,0,2.128-14.619q-2.5-8.1-11.586-14.562-14.584-10.359-31.805-.664a11.787,11.787,0,0,1-3.808,1.553A5.388,5.388,0,0,1,489,153.645l-13.893-9.878a4.631,4.631,0,0,1-1.924-2.919,4.36,4.36,0,0,1,.836-3.534,32.506,32.506,0,0,1,12.4-9.645,51.278,51.278,0,0,1,17.48-4.611,61.993,61.993,0,0,1,19.8,1.557A54.67,54.67,0,0,1,543.088,133.49Z" transform="translate(-446.27 -122.834)" fill="#ffeb80"/>
          </g>
          <g id="Groupe_23" data-name="Groupe 23" opacity="0.6">
            <path id="Tracé_50" data-name="Tracé 50" d="M480.7,235.768a5.746,5.746,0,0,1,1.341,7.925l-10.725,15.092a5.756,5.756,0,0,1-7.925,1.341L448.646,249.64a5.744,5.744,0,0,1-1.337-7.921l10.726-15.1a5.75,5.75,0,0,1,7.921-1.333ZM543.088,133.49a68.148,68.148,0,0,1,14.105,13.375,52.488,52.488,0,0,1,8.854,16.233,41.6,41.6,0,0,1,1.838,17.57,36.591,36.591,0,0,1-6.947,17.4,37.208,37.208,0,0,1-10.611,10.391,44.408,44.408,0,0,1-11.949,5.189,72.761,72.761,0,0,1-12.531,2.2q-6.329.538-11.973,1.04a59.884,59.884,0,0,0-10.624,1.871,17.2,17.2,0,0,0-8.169,4.778,8.167,8.167,0,0,1-3.861,2.161,4.8,4.8,0,0,1-4.06-.823L474.128,215.6a5.8,5.8,0,0,1-2.373-3.746,4.672,4.672,0,0,1,1.027-4.174,36.684,36.684,0,0,1,11.186-9.735,51.563,51.563,0,0,1,12.462-4.827,73.571,73.571,0,0,1,12.727-1.92q6.341-.4,11.912-.958A47.871,47.871,0,0,0,531,188.263a13.316,13.316,0,0,0,6.922-5.018,15.885,15.885,0,0,0,2.128-14.619q-2.5-8.1-11.586-14.562-14.584-10.359-31.805-.664a11.787,11.787,0,0,1-3.808,1.553A5.388,5.388,0,0,1,489,153.645l-13.893-9.878a4.631,4.631,0,0,1-1.924-2.919,4.36,4.36,0,0,1,.836-3.534,32.506,32.506,0,0,1,12.4-9.645,51.278,51.278,0,0,1,17.48-4.611,61.993,61.993,0,0,1,19.8,1.557A54.67,54.67,0,0,1,543.088,133.49Z" transform="translate(-446.27 -122.834)" fill="#ffeb80"/>
          </g>
        </g>
      </g>
    </g>
    <g id="Question_Mark" data-name="Question Mark" transform="translate(132.362 28.892)">
      <g id="Big_Question_Mark" data-name="Big Question Mark">
        <g id="Groupe_25" data-name="Groupe 25" transform="translate(120.863 724.893)">
          <path id="Tracé_51" data-name="Tracé 51" d="M427.592,259.454c-11.639-6.657-60.537-34.92-77.17-44.533-3.314-1.916-5.373-3.106-5.577-3.221-8.161-4.7-17.24-6.029-27.174-4.2a70.866,70.866,0,0,0-22.507,8.744c-1.15.665-2.258,1.443-3.392,2.161C273,230.262,256.852,248.949,243.4,274.643q-21.4,40.884-21.39,81.369,0,40.5,21.6,56.832a41.953,41.953,0,0,0,4.553,3c13.481,7.656,81.181,46.86,82.689,47.725.11.061.228.1.342.163a41.224,41.224,0,0,1-4.774-3.1q-21.6-16.321-21.6-56.832,0-40.493,21.39-81.369,21.39-40.86,51.76-58.4,28.929-16.7,49.963-4.358C427.82,259.609,427.71,259.523,427.592,259.454Z" transform="translate(-221.998 -206.711)" fill="#dac764"/>
          <path id="Tracé_52" data-name="Tracé 52" d="M409.5,259.684q-21.035-12.352-49.975,4.321-28.257,16.327-48.719,52.873L228.01,269.061c12.8-22.87,27.921-39.706,45.328-50.672,1.1-.693,2.242-1.508,3.384-2.161a69.756,69.756,0,0,1,22.507-8.724c9.943-1.835,18.993-.489,27.187,4.2.208.082,2.246,1.3,5.548,3.22,16.628,9.58,65.547,37.871,77.17,44.516Z" transform="translate(-203.55 -206.701)" fill="#dac764" opacity="0.4"/>
          <path id="Tracé_53" data-name="Tracé 53" d="M331.217,416.665a1.512,1.512,0,0,1-.367-.163c-1.508-.856-69.18-40.073-82.673-47.737a43.614,43.614,0,0,1-4.566-2.976q-21.585-16.327-21.6-56.828,0-40.542,21.4-81.369c.974-1.916,1.993-3.791,3.057-5.585l82.791,47.818c-1.019,1.794-2.038,3.669-3.017,5.544q-21.4,40.908-21.4,81.369,0,40.541,21.606,56.827A38.35,38.35,0,0,0,331.217,416.665Z" transform="translate(-222.01 -159.648)" fill="#dac764" opacity="0.3"/>
        </g>
        <g id="Groupe_26" data-name="Groupe 26">
          <path id="Tracé_54" data-name="Tracé 54" d="M482.668,106.979q60.323-34.824,102.673-29.616a85.287,85.287,0,0,1,32.751,10.852c-.269-.159-.53-.338-.8-.493-9.7-5.479-68.152-39.176-81.5-47.036a85.307,85.307,0,0,0-33.265-11.117q-42.352-5.2-102.673,29.616Q306.17,113.271,248.847,218.078T192.374,432.229l82.812,47.794q-.856-109.34,56.473-214.151T482.668,106.979Z" transform="translate(-192.362 -28.892)" fill="#dac764"/>
          <path id="Tracé_55" data-name="Tracé 55" d="M578.168,87.741a87.3,87.3,0,0,0-31.956-10.4q-42.321-5.2-102.652,29.637-93.674,54.055-151.037,158.905c-1.59,2.894-3.135,5.83-4.647,8.724l-82.8-47.818c1.512-2.894,3.058-5.83,4.651-8.724q57.29-104.809,151-158.905,60.347-34.794,102.689-29.6A85.284,85.284,0,0,1,496.677,40.7C510.007,48.565,568.465,82.237,578.168,87.741Z" transform="translate(-153.237 -28.891)" fill="#dac764" opacity="0.2"/>
          <path id="Tracé_56" data-name="Tracé 56" d="M326.987,125.256q-52.649,100.651-51.813,205.419l-82.8-47.818q-.8-104.809,51.813-205.419Z" transform="translate(-192.349 120.464)" fill="#dac764" opacity="0.3"/>
        </g>
        <g id="Groupe_27" data-name="Groupe 27" transform="translate(133.488 209.292)">
          <path id="Tracé_57" data-name="Tracé 57" d="M438.182,84.527q-22.527-11.967-60.195,9.4a149.469,149.469,0,0,1-9.14,43.689q-9.417,25.407-54.761,104.625-47.06,81.933-68.018,156.488a555.409,555.409,0,0,0-20.962,150.992l.428,25.422,56.5,32.609,26.314,15.185-.428-25.422c0-.224.012-.444.012-.669a555.418,555.418,0,0,1,20.95-150.324Q349.836,371.96,396.9,290.031q45.342-79.224,54.761-104.621a149.164,149.164,0,0,0,9.409-52.209Q461.068,96.707,438.182,84.527Z" transform="translate(-225.107 -80.23)" fill="#d9c764"/>
          <path id="Tracé_58" data-name="Tracé 58" d="M443.536,146.616q-14.009,29.168-46.64,86.179-47.084,81.939-68.038,156.5A556.78,556.78,0,0,0,307.9,539.6v.652l.448,25.438-26.335-15.165-56.5-32.613-.408-25.438a555.217,555.217,0,0,1,20.954-151q20.974-74.54,68-156.5,32.659-56.991,46.718-86.138Z" transform="translate(-225.101 -22.99)" fill="#d9c764" opacity="0.3"/>
          <path id="Tracé_59" data-name="Tracé 59" d="M358.673,133.211a148.9,148.9,0,0,1-9.417,52.18c-1.753,4.77-4.484,10.925-8.108,18.467L258.389,156.08q5.442-11.312,8.072-18.467a150.083,150.083,0,0,0,9.132-43.7q37.674-21.341,60.211-9.376Q358.673,96.7,358.673,133.211Z" transform="translate(-122.712 -80.232)" fill="#d9c764" opacity="0.4"/>
        </g>
        <path id="Tracé_60" data-name="Tracé 60" d="M324.774,379.241,212.688,443.953q-.856-109.34,56.473-214.151T420.17,70.909q60.323-34.824,102.673-29.616T590.649,87.7q25.444,41.214,25.454,102.8a332.522,332.522,0,0,1-8.129,70.859q-8.127,37.209-25.666,81.556-10.267,25.9-49.2,95.71-37.221,66.554-46.632,90.524T470.65,587.632q-6.415,34.506-8.125,90.251L346.592,744.817l-.428-25.422A555.4,555.4,0,0,1,367.126,568.4q20.956-74.559,68.018-156.488,45.342-79.224,54.761-104.621a149.162,149.162,0,0,0,9.409-52.209q0-36.494-22.886-48.674-22.888-12.156-61.389,10.061-39.361,22.729-64.593,68.222Q325.2,330.2,324.774,379.241Z" transform="translate(-129.864 7.178)" fill="#ffd600"/>
        <path id="Tracé_61" data-name="Tracé 61" d="M315.423,228.079q31.229-18.027,53.265-2.234,22.026,15.819,22.03,56.3,0,40.511-21.818,81.9t-52.616,59.184q-30.807,17.782-52.409,1.451t-21.6-56.832q0-40.493,21.39-81.369Q285.053,245.62,315.423,228.079Z" transform="translate(-38.806 554.364)" fill="#ffd600"/>
      </g>
    </g>
  </g>
</svg>
