<svg xmlns="http://www.w3.org/2000/svg" xmlns:xlink="http://www.w3.org/1999/xlink" width="2541.468" height="1018.197" viewBox="0 0 2541.468 1018.197">
  <defs>
    <linearGradient id="linear-gradient" x1="27.983" y1="-23.236" x2="29.002" y2="-23.236" gradientUnits="objectBoundingBox">
      <stop offset="0" stop-color="#84a47f"/>
      <stop offset="1" stop-color="#3b3b64"/>
    </linearGradient>
    <linearGradient id="linear-gradient-2" x1="55.034" y1="-10.079" x2="57.383" y2="-10.079" xlink:href="#linear-gradient"/>
    <linearGradient id="linear-gradient-3" x1="0.571" y1="-0.211" x2="0.475" y2="0.675" gradientUnits="objectBoundingBox">
      <stop offset="0" stop-color="#f7e2bb"/>
      <stop offset="1" stop-color="#d2b795"/>
    </linearGradient>
    <linearGradient id="linear-gradient-4" x1="79.31" y1="0.5" x2="80.695" y2="0.5" xlink:href="#linear-gradient-3"/>
    <linearGradient id="linear-gradient-5" x1="239.683" y1="-0.013" x2="240.366" y2="1.213" xlink:href="#linear-gradient-3"/>
    <linearGradient id="linear-gradient-6" x1="0.363" y1="-0.022" x2="0.524" y2="0.797" gradientUnits="objectBoundingBox">
      <stop offset="0" stop-color="#4b5da5"/>
      <stop offset="1" stop-color="#202853"/>
    </linearGradient>
    <linearGradient id="linear-gradient-7" x1="-2.906" y1="0.5" x2="16.707" y2="0.5" xlink:href="#linear-gradient-6"/>
    <linearGradient id="linear-gradient-8" x1="0" y1="0.5" x2="1" y2="0.5" xlink:href="#linear-gradient-3"/>
    <linearGradient id="linear-gradient-9" x1="-9.472" y1="-0.217" x2="-8.564" y2="1.12" xlink:href="#linear-gradient-3"/>
    <linearGradient id="linear-gradient-10" y1="0.5" x2="1" y2="0.5" gradientUnits="objectBoundingBox">
      <stop offset="0" stop-color="#d25c5c"/>
      <stop offset="1" stop-color="#743131"/>
    </linearGradient>
    <linearGradient id="linear-gradient-11" x1="0.642" y1="-0.15" x2="0.477" y2="0.665" xlink:href="#linear-gradient-10"/>
    <linearGradient id="linear-gradient-13" x1="0" y1="0.5" x2="1.122" y2="0.5" xlink:href="#linear-gradient-3"/>
    <linearGradient id="linear-gradient-14" x1="0.062" y1="0.5" x2="0.952" y2="0.5" gradientUnits="objectBoundingBox">
      <stop offset="0" stop-color="#92c9c2"/>
      <stop offset="1" stop-color="#658781"/>
    </linearGradient>
    <linearGradient id="linear-gradient-15" x1="0.009" y1="0.5" x2="1" y2="0.5" xlink:href="#linear-gradient-14"/>
    <linearGradient id="linear-gradient-18" x1="0.012" y1="0.5" x2="0.965" y2="0.5" xlink:href="#linear-gradient-14"/>
    <linearGradient id="linear-gradient-19" x1="0.012" y1="0.5" x2="0.965" y2="0.5" xlink:href="#linear-gradient-14"/>
    <linearGradient id="linear-gradient-20" x1="0.012" y1="0.5" x2="0.964" y2="0.5" xlink:href="#linear-gradient-14"/>
  </defs>
  <g id="Groupe_139" data-name="Groupe 139" transform="translate(-6876.523 -2946.361)">
    <path id="Tracé_213" data-name="Tracé 213" d="M1301.861,158.633c-7.785-.234-21.69,1.827-28.681,4.843-19.922,8.584-15.662,35.259-2.984,51.252s31.366,30.623,31.972,50.1c1.1,35.277-53.038,47.869-93.131,45.285-92.621-5.972-182.97-31.206-275.816-32.941s-223.251,27.24-266.58,99.355c-19.018,31.651-22.218,69.4-12.853,104.226,15.006,55.815,44.2,98.846,29.994,154.817C662.359,719.96,557.559,749.119,515.2,762.256c-79.01,24.513-146.311,71.62-206.523,122.789C240.218,943.22,175.19,1015.974,177.063,1099.6c.606,26.849,18.711,53.322,30.967,76.848H1466.492V196.752S1426.092,162.338,1301.861,158.633Z" transform="translate(7951.5 2787.746)" fill="#0e0f00"/>
    <path id="Tracé_218" data-name="Tracé 218" d="M351.157,407.318c-10.273,10.232-18.4,23.085-22.076,37.186-1.9,7.278-1.428,13.954-1.8,21.3s-5.606,12.213-12.6,15.577c-5.632,2.716-12.435,3.368-18.162.859-8.7-3.8-13.023-13.664-14.869-22.976-2.505-12.62-4.491-28.126,6.122-35.54,16.372-11.448,5.327-26.913,23.861-46.118,6.981-7.233,26.427-10.006,34.794-15.577,10.2-6.789,13.472-20.324,22-29.113,11.366-11.72,31.268-12.643,45.1-3.978,4.012,2.513,7.708,5.76,12.274,7.018,8.288,2.283,16.636-2.509,24.619-5.7,11.9-4.747,25.421-6.05,37.593-2.065s22.7,13.645,26.276,25.941c-34.07-12.138-71.46,1.756-104.367,16.764C388.848,380.514,367.574,390.96,351.157,407.318Z" transform="translate(8365.03 3426.006)" fill="url(#linear-gradient)"/>
    <path id="Tracé_253" data-name="Tracé 253" d="M371.286,308.75c-6.811,7.885-11.9,17.307-16.372,26.66a260.525,260.525,0,0,0-24.641,89.829c-1.2,14.5-1.006,29.463,2.641,43.636a66.818,66.818,0,0,0,7.1,17.612c1.6,2.686,15.1,21.609,13.294,25.527-6.107,13.276-27.3,18.719-38.968,27.508-4.927,3.714-10.19,7.565-16.327,8.205-13.92,1.45-25.289-16.289-30.051-27.316-3.594-8.322-4.393-18.369.136-26.227,3.993-6.913,11.58-11.411,14.688-18.757,7.233-17.111-13.709-37.05-5.858-53.882,4.5-9.655,16.613-13.362,22.663-22.129,7.135-10.341,2.69-24.3,4.178-36.775C307.579,330.645,340.052,312.073,371.286,308.75Z" transform="translate(8324.396 3386.099)" fill="url(#linear-gradient-2)"/>
    <path id="Tracé_237" data-name="Tracé 237" d="M357.717,292.869c-7.022.5-39.541-1.138-48.465-3.349-.516-.972.049-2.14.607-3.085q5.922-10.109,11.844-20.215c11.385.791,23.507-.181,34.892.61Z" transform="translate(8446.332 3268.41)" fill="#d25b5c"/>
    <path id="Tracé_219" data-name="Tracé 219" d="M390.232,272.27l-71.78,28.6s-10.021,0-16.579,15.118c-1.771,4.08-18.4,103.481-18.4,103.481a108.125,108.125,0,0,1,35.34-4.008c19.5,1.092,28.058,6.012,28.058,6.012V470.3H539.985l55.48-65.448-47.6-109.882-87.312-25.44Z" transform="translate(8375.559 3277.583)" fill="#d25b5c"/>
    <path id="Tracé_269" data-name="Tracé 269" d="M355.683,223.65a24.581,24.581,0,0,1-5.289,4.875,1.951,1.951,0,0,0-1.511-.46c-13.645,1.191-29.524.211-37.446,13.633-3.492,5.918-4.317,12.944-3.466,19.661a62.171,62.171,0,0,0,7.354,22.227,3.675,3.675,0,0,0,.912,1.044c1.6,2.513,5.734,2.622,6.645-.757,1.473-5.432-.252-10.315-1.006-15.382a3.493,3.493,0,0,0,2.882-2.645,36.727,36.727,0,0,1,13.366-19.574l-.079-.079a4.137,4.137,0,0,0-.034-5.116c7.994-3.571,15.754-7.169,20.173-15.5C358.991,224.068,356.862,222.169,355.683,223.65Z" transform="translate(8442.494 3149.126)" fill="#3c3c3d"/>
    <path id="Tracé_270" data-name="Tracé 270" d="M346.311,226.122a2.069,2.069,0,0,0-2.882,1.047,20.437,20.437,0,0,0-5.662,1.066c-2.354.746-3.8,4.2-1.586,6.009,11.919,9.765,11,30.929,8.216,44.6-.953,4.671,6.284,6.623,7.128,1.967,2.1-11.607,4.912-23.3,6.269-35.016C358.875,236.463,354.445,230.2,346.311,226.122Z" transform="translate(8518.379 3156.784)" fill="#3c3c3d"/>
    <path id="Tracé_229" data-name="Tracé 229" d="M324.969,395.024l2.185-61.579-5.828-21.13s-8.7,2.14-11.023-13.984c-1.872-12.982-1.729-14.8-1.729-14.8s-1.458-9.84,10.563-9.84l12.756-36.8s12.387-9.84,47.365-9.84,39.718,7.651,39.718,7.651l4.735,30.609-1.092,8.017s7.651.817,7.651,8.469-2.731,19.676-2.731,19.676-1.092,7.651-6.559,6.012c0,0-4.645,18.309-5.741,24.6s-1.91,30.88-1.91,30.88a34.26,34.26,0,0,1-24.05,9.565l9.019,26.781s5.022,41.138-26.676,41.138S324.969,395.024,324.969,395.024Z" transform="translate(8444.863 3160.024)" fill="#f7e3bb"/>
    <path id="Tracé_263" data-name="Tracé 263" d="M321.473,308.351a3.67,3.67,0,0,0,4.287-2.863c.882-3.526-5.508-10.578,2.645-18.067s1.763-23.579,1.763-23.579,25.56-11.9,48.917-10.578,27.764,2.2,27.764,2.2.222-21.153-1.982-23.8-9.7-5.948-18.071-6.389-43.187,5.73-45.832,7.052-23.357,19.608-23.357,19.608l-3.745,17.408Z" transform="translate(8459.654 3155.06)" fill="url(#linear-gradient-3)"/>
    <path id="Tracé_246" data-name="Tracé 246" d="M286.314,330.667c-2.381,10.533-4.9,40.625,18.143,40.625,0,0,43.9,8.378,43.9-36.436,0-3.989.486-9.045-.362-12.025-8.71-30.522-58.595-10.021-58.595-10.021S287.222,326.659,286.314,330.667Z" transform="translate(8379.303 3378.693)" fill="#f7e3bb"/>
    <path id="Tracé_230" data-name="Tracé 230" d="M503.444,399.782,492.308,367.3l5.941-31.931s13.366-2.6,14.846-8.167,8.913-26.732,3.714-30.443-6.683-5.572-6.683-5.572l8.54-40.1s-28.958-25.244-67.2-25.244-40.84,23.391-40.84,23.391l-4.457,27.474,1.857,11.136s-5.941,3.715-5.941,6.683,8.54,28.589,8.54,28.589l.742,30.074s8.54,17.819,10.025,20.049,19.4,4.129,19.4,4.129l-13.78,46.224s30.025,27.241,34.481,25.014S503.444,399.782,503.444,399.782Z" transform="translate(8703.79 3156.679)" fill="#f7e3bb"/>
    <path id="Tracé_238" data-name="Tracé 238" d="M415.223,290l27.847-4.178,23.391-28.4s-4.6,35.223-20.328,42.046-34.805,3.62-34.805,3.62Z" transform="translate(8729.359 3244.05)" fill="url(#linear-gradient-4)"/>
    <path id="Tracé_262" data-name="Tracé 262" d="M506.263,312.154c-1.673,2.437-3.914,12.4-5.365,19.556l-6.566-5.956-1.111-17.45-8.356-5.383.931-25.059s-11.14-14.481-39.913-14.666-31.185,4.641-31.185,4.641-9-2.321-12.809-13.924c-2.791-8.5-1.857-26.269,11.788-32.394,0,0,22.11,8.039,33.694,2.505,20.6-9.836,51.7-3.989,58.474,9.655.7,1.416,4.174,11.23,4.174,11.23s13.065-3.074,18.1,2.878c10.209,12.066,7.425,23.206,7.425,23.206l-17.8,42.068S509.465,307.494,506.263,312.154Z" transform="translate(8699.721 3138.075)" fill="#3c3c3d"/>
    <path id="Tracé_258" data-name="Tracé 258" d="M432.969,248.252l-6.728,26.7s5.056,5.293,10.356-.833,7.531-20.607,7.531-20.607,1.424-6.544-10.055-8.921Z" transform="translate(8770.626 3208.555)" fill="url(#linear-gradient-5)"/>
    <path id="Tracé_231" data-name="Tracé 231" d="M484.885,272.015s-31.743,29.237-52.907,23.948-19.024-15.268-19.024-15.268-12.161,28.077,5.1,31.14,66.548-18.376,67.663-39.819" transform="translate(8722.35 3284.446)" fill="#4a5da5"/>
    <path id="Tracé_220" data-name="Tracé 220" d="M503.882,328.777s-7.421,28.68-7.143,31.464-9.471,32.858-32.3,29.795S439.1,359.13,439.1,359.13l16.15-37.872S482.352,317.08,503.882,328.777Z" transform="translate(8806.201 3418.703)" fill="#f7e3bb"/>
    <path id="Tracé_214" data-name="Tracé 214" d="M661.981,469.3V344.9s-.324-11.256-.881-16.549-15.826-14.082-15.826-14.082l-64.6-33.969-27.546-8.359s-31.765,36.481-49.863,35.645S481.732,280.9,481.732,280.9c.52-2.5.961-4.332.961-4.332-2.7-1.077-5.511,3.375-5.511,3.375l-49.87,15.574L405.5,347.4l26.393,137.371L391.421,627.715s-30.032,34.259,31.554,44.551a238.788,238.788,0,0,0,26.329,2.66c59.955,15.86,157.085-8.269,158.076-8.6,1.115-.373,13.509,1.1,10.767-14.854-4.083-23.76-1.763-126.974-1.763-126.974s3.492.471,0-.019l-9.173-68.676,9.667.2C633.023,457.117,661.981,469.3,661.981,469.3Z" transform="translate(8654.013 3284.238)" fill="#4a5da5"/>
    <path id="Tracé_215" data-name="Tracé 215" d="M662.044,458.986v-10.04c-.188-.237-.365-.478-.565-.7-3.861-4.4-9.143-6.913-14.007-10-3.564-2.264-7.444-4.445-9.411-8.352-3.733-7.406-2.29-16.056-1.6-23.967.467-5.365,1.021-10.9.162-16.259a35.456,35.456,0,0,0-1.563-6.487c-.927-2.49-2.531-3.1-4.837-4.042-6.63-2.694-13.223-6.977-13.193-15,.026-6.574,4.8-12.161,9.128-16.617,4.445-4.577,10.232-8.378,13.8-13.739,3.8-5.7-4.89-2.709-7.629-1.869-4.66,1.432-8.921,3.857-13.577,5.274-2.166.659-5.391,1.707-6.811-.761-1.206-2.091.346-5.093,1.168-7,2.1-4.871,5.308-9.135,8.363-13.434.912-1.285,1.838-2.569,2.7-3.892a148.345,148.345,0,0,0-18.866-9.23c-7.455-3.153-15.016-6.1-22.294-9.663-6.058-2.961-15.02-6.8-18.557-12.861a6.99,6.99,0,0,1-.674-1.575c-1.379-1.488-2.855-2.754-4.528-3.036-3.575-.61-7.7,2.121-10.571,3.88-3.53,2.166-9.614,9.629-23.937,15.577a38.813,38.813,0,0,1-38.546-4.5,48.774,48.774,0,0,1-11.848-14.7,13.908,13.908,0,0,0-.3,1.65c.6,1.593.968,3.323,1.424,4.89,1.665,5.711,5.293,10.571,9.433,14.76,4.769,4.826,10.484,9.6,17.209,10.966,23.511,4.784,33.72-7.678,33.2-6.668-4.253,8.239-8.461,15.43-16.244,20.889s-16.6,7.067-25.888,7.843c-5.063.418-10.842.478-15.348,3.127-.222.128-.429.275-.644.418-3.522,6.7-3.673,14.636-10.032,19.808-9.6,7.8-24.242,9.429-35.965,11.671a150.061,150.061,0,0,1-19.725,2.52l20.482,106.6L391.483,617.4s-30.028,34.263,31.558,44.555a237.829,237.829,0,0,0,26.325,2.656c59.955,15.86,157.085-8.265,158.076-8.6,1.115-.369,13.509,1.1,10.77-14.85-4.087-23.763-1.767-126.974-1.767-126.974s3.5.471,0-.019l-9.177-68.68,9.667.2C633.085,446.8,662.044,458.986,662.044,458.986Z" transform="translate(8654.191 3294.485)" fill="url(#linear-gradient-6)"/>
    <path id="Tracé_232" data-name="Tracé 232" d="M398.925,283.84a81.058,81.058,0,0,1,11.569-6.664l-12.127,3.786-2.042,4.852C397.181,285.128,398.04,284.462,398.925,283.84Z" transform="translate(8687.846 3298.727)" fill="url(#linear-gradient-7)"/>
    <path id="Tracé_264" data-name="Tracé 264" d="M311.4,256.561a4.65,4.65,0,0,1,4.965,3.006c1.906,4.238,4.509,29.426,4.509,29.426l7.651-2.735-1.639-23.5s13.664-8.2,13.117-9.019-3.281-20.5-3.281-20.5l-25.413,11.479Z" transform="translate(8452.598 3177.153)" fill="#3c3c3d"/>
    <path id="Tracé_254" data-name="Tracé 254" d="M317.047,249.6a12.711,12.711,0,0,1-5.828.034c-.177-.045,8.013,27.975,8.013,27.975l2.46-4.1Z" transform="translate(8452.33 3222.419)" fill="#3c3c3d"/>
    <path id="Tracé_239" data-name="Tracé 239" d="M316.3,258.97s9.655,25.233,51.558,25.233L371.5,294.86S314.657,303.423,316.3,258.97Z" transform="translate(8466.289 3248.348)" fill="url(#linear-gradient-8)"/>
    <path id="Tracé_265" data-name="Tracé 265" d="M320.712,266.482c.124-.185.252-.362.358-.557,1.812-3.4-.588-6-1.56-9.218-1.6-5.293.154-13.713-6.664-15.329a3,3,0,0,1-.644-.234,6.523,6.523,0,0,0-2.064,4.871s.535,11.136,3.541,17.318C315.4,266.866,318.4,267.025,320.712,266.482Z" transform="translate(8449.331 3199.02)" fill="url(#linear-gradient-9)"/>
    <path id="Tracé_271" data-name="Tracé 271" d="M338.7,255.963l-.158-22.686s3.349,9.689,3.816,12.541c.479,2.938-1.2,6.423-.787,10.808Z" transform="translate(8527.957 3177.25)" fill="#3c3c3d"/>
    <path id="Tracé_233" data-name="Tracé 233" d="M323.452,266.531c9.6,11.121,35.261,36.764,35.344,38.557.561,12.571,18.105,25.425,18.105,25.425a13.577,13.577,0,0,1-8.115,4.453c-3.432.392-13.758-3.515-19.71-5.926-3.191,7.47-6.92,14.346-11.106,6.773-10.808-17.619-16.885-30.364-28.947-47.384Z" transform="translate(8446.264 3269.271)" fill="#d25b5c"/>
    <path id="Tracé_273" data-name="Tracé 273" d="M389.139,228.549a111.474,111.474,0,0,0-43.688.75c-5.538,1.239-12.522,2.388-17.22,5.79-5.485,3.974-8.126,12.662-11.113,18.463-1.763,3.421,3.488,6.442,5.146,3.006,2.52-5.229,4.833-13.935,9.474-17.472s12.646-4.63,18.241-5.764a132.057,132.057,0,0,1,38.787-2.015c1.563.151,1.933-2.486.373-2.758Z" transform="translate(8467.671 3159.194)" fill="#3c3c3d"/>
    <path id="Tracé_272" data-name="Tracé 272" d="M421.146,222.766c-5.056,2.464-10.688,1.085-15.9-.06-5.391-1.183-10.752-2.37-16.218-3.179-8.834-1.307-17.785-1.993-26.645-.558-16.278,2.637-32.59,10.6-36.191,27.979a1.817,1.817,0,0,0-.015.622c-1.71,2.215-3.36,4.513-4.984,6.849a1.928,1.928,0,0,0,.919,2.822q-.814.514-1.6,1.055c-9.207,6.351-9.3,19.966-9.226,30.089.026,3.6,5.745,5.775,7.346,1.989q.757-1.8,1.56-3.571a3.189,3.189,0,0,0,3.752-.991c.381-.463.765-.923,1.145-1.383,1.078,2.332,4.377,3.737,6.265,1.334a91.344,91.344,0,0,0,13.754-24.046q5.922-3.43,11.821-6.894a129.265,129.265,0,0,1,19.684-.629c11.72.463,24.837,3.406,36.022-1.488.2-.087.377-.192.573-.283.991,1.6,3.206,2.449,4.634.633,6.129-7.794,8.4-17.68,8.258-27.452A3.331,3.331,0,0,0,421.146,222.766Zm-24.841,26.988.015.015-.045,0Z" transform="translate(8452.487 3135.442)" fill="#3c3c3d"/>
    <path id="Tracé_234" data-name="Tracé 234" d="M320.071,303.12c-.362-.256,8.152-26.442,8.152-26.442s.139,11.626,18.139,25.756C346.362,302.434,332.962,312.263,320.071,303.12Z" transform="translate(8476.803 3297.35)" fill="url(#linear-gradient-10)"/>
    <path id="Tracé_235" data-name="Tracé 235" d="M366.3,316.492s-.949-11.757-1.409-18.433c-.561-8.16-6.755-14.353-6.755-14.353s-11.256-15.381-11.818-15.946l-1.352-.087c-.038.109,1.42,3.311,1.138,4.882-2.079,11.675-7.557,35.231-7.4,35.408-5.756,6.48-13.287,14.052-13.287,14.052s10.789,13.871,17.921,5.805c.136-.155,5.6-10.1,5.749-10.277,2.452,2.193,5.184,4.6,8.062,7.112C367,333.237,366.3,316.492,366.3,316.492Z" transform="translate(8491.648 3272.431)" fill="#d25b5c"/>
    <path id="Tracé_221" data-name="Tracé 221" d="M344.162,274.717q-21.987,12.37-42.7,26.841a4.467,4.467,0,0,0-1.884,2.038c-.418,1.27.362,2.6,1.089,3.714A139.368,139.368,0,0,1,316.7,341.182c1.507,4.747,2.769,9.731,2.1,14.669-.648,4.75-3.036,9.094-4.039,13.78-1.68,7.851.618,15.924,1.594,23.892a144.411,144.411,0,0,1,.637,19.28q-.141,12.647-.286,25.289c-.06,5.3-2.645,17.8.064,22.328,2.81,4.686,14.884,5.071,19.567,5.195,7.47.2,14.914-.84,22.324-1.646a259.568,259.568,0,0,1,39.91-1.258c3.372.154,6.883.35,9.983-.98s5.617-4.72,4.739-7.979c-.527-1.948-2.1-3.417-3.669-4.683a54.662,54.662,0,0,0-14.85-8.525c-1.959-.746-4.1-1.48-5.27-3.213-2.211-3.27.3-7.549,2.554-10.789s4.174-8.058,1.262-10.718a6.776,6.776,0,0,0-3-1.424c-6.088-1.5-12.394.757-18.64,1.33a34.923,34.923,0,0,1-16.41-2.467,8.473,8.473,0,0,1-3.458-2.249,8.64,8.64,0,0,1-1.492-5.059,40.687,40.687,0,0,1,7.128-25.221c3.925-5.654,9.6-11.264,8.777-18.1-.648-5.357-5.135-9.271-8.97-13.065-9.851-9.738-17.224-22.2-19.819-35.811s-.158-28.329,7.681-39.751" transform="translate(8419.809 3289.964)" fill="url(#linear-gradient-11)"/>
    <path id="Tracé_274" data-name="Tracé 274" d="M265.68,323.962c3.191,4.193,6.208,8.51,8.985,12.989,2.671,4.31,6.031,9.09,7.4,14,1.345,4.822.456,10.714.177,15.649-.339,5.892-.9,11.772-1.733,17.612-.509,3.56.878,7.063,4.618,8.133,3.093.885,7.625-1.085,8.13-4.619.961-6.736,1.74-13.486,2.155-20.283.373-6.084.979-12.56-.26-18.58-1.164-5.651-.5-16.357-3.409-21.262-3.225-5.444-17.028-26.7-20.859-31.731-2.177-2.863.535,17.126-2.837,19.043-2.814,1.6-4.528,6.208-2.37,9.045Z" transform="translate(8323.628 3349.693)" fill="#3c3c3d"/>
    <path id="Tracé_240" data-name="Tracé 240" d="M461.433,488.606c3.183-9.731,1.982-19.993-.049-29.87a97.539,97.539,0,0,1-4.675-20.478c-1.341-5.967-2.562-11.957-3.394-18.06-3.093-22.743-2.731-45.723-4.317-68.582a240.428,240.428,0,0,0-9.188-52.308c-3.79-12.677-8.812-25.783-17-36.354-4.555-4.814-9.2-9.772-15.589-12.074-6.958-2.509-14.071-.844-21.1.35a43.7,43.7,0,0,1-21.82-1.808,5.843,5.843,0,0,0-4.517.143c-.968-.38-1.94-.742-2.9-1.085a71.476,71.476,0,0,0-28.073-3.925,72.684,72.684,0,0,0-46.623,21c-13.1,13.068-19.91,30.755-22.863,48.748-3.1,18.9-5.1,39.865.1,58.512,6.272,22.464,15.8,44.408,24.977,65.809,2.92,6.807,14.8,1.9,12.081-5.093-10.4-26.762-10.944-58.256-5.278-86.224,2.818-13.927,10.235-24.562,21.624-32.978,10.868-8.032,24-13.731,37.729-13.038,8.013.4,15.585,3.534,23.4,5.071,4.14.814,9.124,1.59,12.918.392.109.068.211.139.32.207,4.656,2.912,8.194,5.214,11.181,9.957a97.623,97.623,0,0,1,7.685,15.118,113.318,113.318,0,0,1,5.236,16.414c1.315,5.489,1.7,11.068,2.754,16.583a12.114,12.114,0,0,0,4.121,7.218c0,7.99,1.454,16.206,1.7,24.076.527,16.749-2.1,33.343-6.287,49.52-3.488,13.464-8.457,31.7,5.854,41.006,6.611,4.294,14.12,3.017,21.5,2.381a157.305,157.305,0,0,1,20.426-.384C461.388,488.768,461.407,488.689,461.433,488.606Zm-63.7-211.86c-.414-.576-.84-1.145-1.266-1.714.761.411,1.511.851,2.245,1.311A7.13,7.13,0,0,0,397.737,276.746Zm5.451-13.121" transform="translate(8300.127 3208.086)" fill="#3c3c3d"/>
    <path id="Tracé_222" data-name="Tracé 222" d="M634.447,343.32c-3.236-4.125-8.13-6.8-12.451-9.636a198.062,198.062,0,0,0-17.024-10.228,87.439,87.439,0,0,0-36.015-10.284c-15.363-.836-30.891.467-46.28.328-12.285-.113-28,1.8-38.346-6.156-2.852-2.193-7.376-.414-9.045,2.373a5.927,5.927,0,0,0-.641,4.946c-.411.173-.821.339-1.228.527l-.2.09c-19.4,7.286-40.275,8.288-60.52,12.017a180.283,180.283,0,0,0-35.562,10.8,6.434,6.434,0,0,0-7.263-.761q-27.118,13.822-53.532,28.958c-16.772,9.625-34.24,19.077-49.814,30.582-6.909,5.1-13.43,11.049-17.5,18.738-4.4,8.307-5.764,17.638-6.385,26.909-1.383,20.75-1.974,41.586-2.938,62.359q-.848,18.213-1.691,36.425c-.3,1.533-.584,3.07-.9,4.6a31.692,31.692,0,0,0,.045,13.728q-.4,8.646-.8,17.3c-.162,3.477,3.157,6.611,6.608,6.611,43.5,0,319.681.569,319.681.569,1.16-13,3.673-36.252,8.457-48.393,4.946-12.556,11.234-24.528,16.116-37.126,10.153-26.2,19.284-52.835,28.857-79.255q7.137-19.7,14.278-39.4C634.326,368.983,642.9,354.1,634.447,343.32Zm-84.954,223.1.177-.109-.019.128Z" transform="translate(8245.17 3379.489)" fill="#92c9c2"/>
    <path id="Tracé_241" data-name="Tracé 241" d="M284.942,324.708c.23,4.6-7.323,4.871-9.81,8.744a9.712,9.712,0,0,0-1.164,3.937q-1.339,9.126-2.671,18.252a20.872,20.872,0,0,0-.294,6.02c.456,3.134,2.29,5.869,4.027,8.521,9.942,15.178,10.944,26.031,13.871,43.941,1.793,10.947,8.857,27.9,10.33,38.889,2.656,19.812,46.273,113.152,51.087,120.249,1.782,2.622,4.295,8.017,7.007,9.652h19.721c8.375-7.048,12.338-148.518,22.513-213.551,1.153-7.357,3.828-14.473,4.129-21.914A58.454,58.454,0,0,0,400,325.484c-3.123-8.706-9.267-17.785-18.474-18.625-6.28-.573-12.115,2.882-17.755,5.7A101.181,101.181,0,0,1,318.1,323.209c-13.886-.083-29.365-2.6-40.328,5.929" transform="translate(8340.72 3380.693)" fill="#3c3c3d"/>
    <path id="Tracé_247" data-name="Tracé 247" d="M407.9,346.86c-.166-7.4-.29-14.892-1.963-22.144-1.612-6.977-9.015-54.474-28.77-64.86-12.76-6.705-27.956-2.611-41.688.324-13.569,2.9-27.983,4.581-40.908,9.806-11.923,4.822-22.034,12.7-27.2,24.754-5.293,12.349-5.5,18.889-5.745,32.13-.128,6.89,5.071,15.645,7.715,27.105,2.682,11.626.991,24.235,3.526,31.95,3.421,10.416,7.21,19.167,9.625,26.37,5.892,14.922,12.854,30.262,18.35,36.693,9.644,9.4,23.244,14.651,36.561,17.71,12.9,2.969,26.668,1.756,37.864-5.719,10.07-6.724,17.389-16.719,23.213-27.177,3.3-5.918,9.621-29.644,9.46-37.081C407.6,381.285,408.249,362.3,407.9,346.86Z" transform="translate(8315.107 3240.763)" fill="#f7e3bb"/>
    <path id="Tracé_248" data-name="Tracé 248" d="M383.052,332.008a43.119,43.119,0,0,1-5.09-13.193c.094-1.533-1.484-14.47-1.145-16.93.38-2.773-3.1-2.328-3.489.471-.113.8-.2,1.6-.282,2.4a5.8,5.8,0,0,0-4-1.522c-3.164,0-6.781,3.036-6.4,6.608q.644,6.046,1.292,12.089a6.174,6.174,0,0,0-4.7,4.449q-.4,1.452-.81,2.916c-1.917-3.519-6.521-5.436-9.832-1.571q-3.588,4.187-7.32,8.239a56.828,56.828,0,0,0-8.431,5.443,37.8,37.8,0,0,1-6.419,1.511c-1.224.17-2.471.26-3.726.309q.266-1.509.5-3.029c.561-3.549-.893-7.075-4.468-8.13-3.048-.9-7.316,1.1-7.873,4.615-.252,1.612-.531,3.217-.825,4.818a10.122,10.122,0,0,0-5.142.09c-.162.053-.309.113-.463.169a60.469,60.469,0,0,1-2.9-9.994c-1.319-6.6-11.309-5.9-12.473.019a53.681,53.681,0,0,0-8.3-18.41c-2.079-2.882-5.515-4.276-8.755-2.37a5.281,5.281,0,0,0-1.115.889,14.955,14.955,0,0,1,1.545,3.662,3.621,3.621,0,0,1,1.462,2.166c.155.584.279,1.157.384,1.729.6,2.675.543,5.945,1.066,8.661.177.738,3.315,20.143,3.3,24.984-.015,5.621-1.609,12.01-.61,17.521,1.2,6.615,7.474,9.358,12.688,12.259,5.447,3.036,11.076,5.576,16.7,8.22,2.283,1.074,5.2,2.3,6.762,4.46,1.744,2.407.693,4.453-.279,6.965-2.373,6.137-2.4,11.343,1.213,16.979,3.605,5.621,7.15,11.234,10.33,17.126a206.377,206.377,0,0,1,16.719,41.307,7.374,7.374,0,0,0,.362.983,49.573,49.573,0,0,0,3.688,10.4c.991,2.027,2.042,4.683,4.449,5.1,2.3.4,3.752-1.413,4.562-3.4,1.285-3.146,1.221-7.354,1.59-10.725.456-4.118.817-8.246,1.126-12.379a6.116,6.116,0,0,0,.109-1.39c.659-9.4.972-18.81,1.04-28.228.064-9.177-.1-18.354-.4-27.523-.279-8.544-1.322-17.31-.821-25.851,1.028-17.691,21.435-20.207,29.041-33.611C390.97,344.153,386.683,338.141,383.052,332.008Z" transform="translate(8340.73 3361.934)" fill="#f7e3bb"/>
    <path id="Tracé_249" data-name="Tracé 249" d="M301.556,276.038" transform="translate(8425.598 3295.578)" fill="none" stroke="#3c3c3d" stroke-miterlimit="10" stroke-width="1"/>
    <path id="Tracé_250" data-name="Tracé 250" d="M312.277,273.717c-5.123-2.656-10.009,1.379-13.276,4.984-1.9,2.1,1.209,5.225,3.116,3.119.791-.874-.35,1.914.52,1.236-.742,3.5.618,3.4.094,6.947a2.473,2.473,0,0,0,1.45,2.618c0,2.034.068,4.057.192,6.08q.028,6.369.049,12.733a2.083,2.083,0,0,0,.463,1.337c-.041.234-.09.463-.136.693a2.2,2.2,0,0,0-.347,1.1l-.045,1.062a2,2,0,0,0,1.465,2.019,10.337,10.337,0,0,1-2.008,1.624c-1.688-1.756-5,.332-3.522,2.573l.882,1.337a2.231,2.231,0,0,0,2.486,1.01c5.647-2.294,10.473-4.215,12.2-9.847,2.166-7.079,1.891-17.649,1.842-25.093C317.671,284.45,317.234,276.286,312.277,273.717Z" transform="translate(8416.889 3286.782)" fill="#f7e3bb"/>
    <path id="Tracé_275" data-name="Tracé 275" d="M316.092,485.944c-6.766-23.846-4.837-48.977-6.434-73.566a100.683,100.683,0,0,0,.354-10.706c-.271-.648-.546-1.292-.836-1.921-1.567-3.4-1.258-6.732-2.223-10.36-1.367-5.116-3.405-10.729-4.366-15.984a7.848,7.848,0,0,0-.817-.407c-.644-.746-6.717-.889-8.6-1.65a5.544,5.544,0,0,0-2.889-2.241,46.02,46.02,0,0,1-6.468-11.739c-2.046-5.233-4.227-10.752-5.067-16.308-1.737-11.448,2-22.822-.271-34.18-1.123-5.606-8.71-6.088-11.716-2.151-.629-11.49-1.428-22.976-2.234-34.455-.2-2.814-3.164-6.966-2.969-4.133,2.524,35.879,3.594,76.082.806,112.025-.727,9.365-1.816,18.7-3.383,27.968-1.432,8.5-3.62,16.836-5.112,25.319-2.562,14.59-.279,30.9,9.282,42.776,5.3,6.589,12.353,8.48,20.343,9.991q10.245,1.938,20.5,3.869a6.762,6.762,0,0,0,6.675,1.262l1.959.369C312.788,490.247,317.365,486.423,316.092,485.944Z" transform="translate(8290.94 3265.575)" fill="#3c3c3d"/>
    <path id="Tracé_251" data-name="Tracé 251" d="M319.517,321.6a6.038,6.038,0,0,0,4.246-1.978c1.959-2.053-1.153-5.172-3.116-3.119-.075.079-.154.143-.23.211a6.412,6.412,0,0,0,.309-1.91,2.344,2.344,0,0,0,.588-1.454,17.663,17.663,0,0,0-1.2-7.911,2.233,2.233,0,0,0-1.484-1.371q-.825-4-1.643-7.994a2.059,2.059,0,0,0-2.283-1.545q-.5-1.865-.942-3.752c.188-3.424.509-6.969-.689-10.179a1.835,1.835,0,0,0-1.669-1.27,15.846,15.846,0,0,1-.094-3.609,2.011,2.011,0,0,0,.633-2.144l-.072-.271a2.259,2.259,0,0,0-2.125-1.616l-.339-.019a2.176,2.176,0,0,0-1.835.995,2.023,2.023,0,0,0-1.484,1.356,44.923,44.923,0,0,0-10.217-17.235c-1.985-2.03-5.1,1.085-3.116,3.116C303.352,270.73,304.565,286,306.584,300.22c.686,4.83,1.846,10.119,4.253,14.575a27.3,27.3,0,0,0,10.62,13.9c1.462.987,3.115-1.217,1.869-2.422A26.156,26.156,0,0,1,319.517,321.6Z" transform="translate(8399.492 3240.483)" fill="#3c3c3d"/>
    <path id="Tracé_252" data-name="Tracé 252" d="M272.714,327.836c3.959,9.226,18.719,36.681,47.263,36.248,29.086-.441,53.106-33.6,51.784-63.572-12.782,24.02-26.992,39.224-53.106,43.191C293.467,347.531,272.714,327.836,272.714,327.836Z" transform="translate(8345.786 3363.306)" fill-rule="evenodd" fill="url(#linear-gradient-8)"/>
    <path id="Tracé_255" data-name="Tracé 255" d="M299.88,429.562c1.594.335,2.938-.46,4.385-1.869,5.583-5.432,7.3-14.447,8.066-21.974.753-7.433,2.562-14.873,2.995-22.306.467-8.066-.708-16-1.669-23.986-.919-7.625-1.7-15.269-3.741-22.7-.708-2.573-3.014-9.079-2.415-13.445q-7.4,10.776-14.8,21.552a15.047,15.047,0,0,0-3.229,13.833q.972,7.137,1.974,14.274,2.65,19.021,5.3,38.041C297.6,417.2,298.482,423.456,299.88,429.562Z" transform="translate(8391.025 3426.323)" fill="url(#linear-gradient-13)"/>
    <path id="Tracé_236" data-name="Tracé 236" d="M357.846,465.409c-.633-.52-1.27-1.036-1.9-1.552a2.656,2.656,0,0,0,.5-1.368,2.534,2.534,0,0,0,.791-1.85,2.849,2.849,0,0,0,.328-1.337q.091-7,.162-14a2.717,2.717,0,0,0,1.793-2.584q.5-15.483.976-30.97.283-3.515.64-7.018a2.7,2.7,0,0,0,.113-1.221c-.128-1.126-.26-2.257-.388-3.383a3.034,3.034,0,0,0-1.224-2.166c.373-1.111.712-2.242.979-3.413a1.492,1.492,0,0,0-.038-.863c.147-.264.3-.52.448-.784,2.716-4.9,4.14-9.324,1.989-14.764-2.23-5.651-5.756-10.966-8.917-16.127-3.541-5.783-7.335-11.369-11.354-16.824a313.459,313.459,0,0,0-25.214-30.115c-.727-.761-1.85.38-1.153,1.153a293.46,293.46,0,0,1,41.236,59.088c1.827,3.421,3.666,6.939,2.517,10.91-.844,2.912-2.761,5.651-4.294,8.239-3.093,5.233-6.34,10.371-9.787,15.378a307.877,307.877,0,0,1-23.172,29.478,2.182,2.182,0,0,0,0,3.048q14.262,11.714,28.533,23.428c1.756,1.439,5.6,3.522,6.544,5.681,1.013,2.306-2.049,5.534-3.221,7.3q-5.069,7.651-9.938,15.43-6.459,10.307-12.549,20.836a2.368,2.368,0,0,0-.618.84c-.136.3-.268.607-.4.912-7.557,13.106-15.845,30.36-22.6,43.9h32.281c1.424-.162,1.45.1,1.616-1.337a538.415,538.415,0,0,1,10.356-59.812,32.8,32.8,0,0,0,.957-4.121,2.639,2.639,0,0,0-2.6-3.063c.475-.75.938-1.5,1.417-2.249,2.987-4.683,7.2-9.467,9.275-14.617C363.761,470.932,361.222,468.186,357.846,465.409ZM327.735,440.3a5.074,5.074,0,0,0,.188.656l-.456-.373.264-.309ZM315.861,556.353c-.188-.034-.373-.075-.561-.105.245-.494.49-.983.735-1.473C315.966,555.295,315.906,555.818,315.861,556.353Z" transform="translate(8445.168 3402.908)" fill="url(#linear-gradient-14)"/>
    <path id="Tracé_259" data-name="Tracé 259" d="M382.337,519.562c-15.69-4.231-28-15-40.486-24.845a152.261,152.261,0,0,0-18.437-12.9c-7.263-4.155-14.88-7.614-21.733-12.432q5.945-10.68,11.889-21.364c1.974-3.553,4.265-7.071,5.982-10.752.768-1.646,1.522-3.323.708-5.116-.995-2.193-3.485-2.765-5.542-3.5-4.038-1.443-8.069-2.886-12.059-4.464q-10.957-4.351-21.552-9.546c-3.368-1.658-6.694-3.394-10-5.172-2.942-1.582-9.181-3.387-9.192-7.576-.007-1.846,1.692-4.588,2.347-6.314q1.091-2.871,2.181-5.737c1.56-4.095,3.085-8.2,4.611-12.308q8.855-23.807,17.487-47.685c.362-1-1.179-1.375-1.567-.429q-9.7,23.558-19.047,47.252c-3.006,7.568-6.465,15.125-8.962,22.878-2.042,6.344,1.586,8.246,6.7,11.268,2.566,1.514,5.169,2.965,7.791,4.381a1.033,1.033,0,0,0,.286,1.239c1.921,1.6,3.827,3.229,5.737,4.852a2.28,2.28,0,0,0,1.141,2.592q2.769,1.492,5.534,2.991c1.816,1.484,3.65,2.95,5.519,4.362,4.645,3.5,8.051,6.148,5.21,12.5-1.609,3.586-3.564,7.052-5.346,10.556-3.714,7.308-7.6,14.587-11.023,22.034-.964,2.095-1.831,4.261-1.526,6.6.414,3.176,3.383,4.878,3.952,7.877.953,5.01-3.571,10.578-4.581,15.374-1.021,4.856.136,9.674,4.072,12.85,3.986,3.213,12.289,2.7,16.915,2.773,0,0,22.181-.034,22.954,0h55.969S384.956,520.267,382.337,519.562Z" transform="translate(8306.149 3441.801)" fill="url(#linear-gradient-15)"/>
    <path id="Tracé_242" data-name="Tracé 242" d="M541.98,292.4c-1.247-9.245-4.468-18.158-12.8-23.225-6.495-3.948-15.016-7.772-19.333-16.617-.478-.976-.539-1.816-1.322-2.162-2.63-6.875-13.49-9.791-19.657-12.017a128.589,128.589,0,0,0-51.076-7.173c-33.344,2.012-71.366,16.764-88.522,47.312-2.46,4.378-4.667,8.947-3.609,14.082,1.021,4.973,3.44,9.923,5.3,14.647-.06,3.511-.316,7.03-.64,10.469-.708,7.587-2.969,14.975-3.127,22.637-.166,7.968,2.641,13.053,7.938,18.738,4.6,4.931,9.5,9.079,15.807,11.622,4.472,1.8,9.192-3.522,7.783-7.787a185.683,185.683,0,0,1-5.632-22,5.8,5.8,0,0,0,2.479-7.549c-1.68-3.8-2.242-8.039-3.756-11.942-.874-2.26-1.778-4.506-2.686-6.751q-.7-2.944-1.247-5.933c-.524-2.889-.881-5.8-1.119-8.717,17.239-12.368,35.98-22.1,57.182-25.244a142.12,142.12,0,0,1,31.859-.674c6.19.49,12.635,1.3,18.388,3.794,5.579,2.419,10.507,6.224,15.091,10.149,5.108,4.378,10.33,8.013,12.545,2.43,3.051,15.216,4.393,23.835,8.521,38.78.079.7,10.36,18.795,10.665,25.142.373,7.757,11.893,9.938,13.946,1.887C540.243,335.574,544.881,313.867,541.98,292.4Z" transform="translate(8546.9 3170.863)" fill="#3c3c3d"/>
    <path id="Tracé_216" data-name="Tracé 216" d="M484.517,332.587c-19.936,15.359-40.351,30.978-64.182,39.058-23.9,8.1-52.752,9.753-67.994,29.863-5.519,7.282-8.439,16.188-10.582,25.071-5.342,22.125-6.419,45.018-8.084,67.715-3.127,42.667-9.064,87.376-16.478,129.505H808.429c3.666,0,7.674-3.5,11.234-4.37,3.8-.93,7.067-3.383,9.772-6.212,12.187-12.722,13.9-32.055,13.257-49.659-1.594-43.221-13.276-85.357-24.882-127.023q-7.8-27.977-15.589-55.95c-1.748-6.28-3.006-13.577-8.2-17.514-10.126-7.659-25.1-10.3-39.213-10.744-36.753-1.153-66.273-27.5-96.44-48.529-8.216-5.73-22.11-14.492-26.958-10.966-6.1,4.442-5.526,21.673-10.947,26.928-4.219,4.095-10.691,4.479-16.564,4.781a327.994,327.994,0,0,0-87.358,16.595c-3.854,1.3-7.922,2.678-11.9,1.827-4.705-1.006-8.175-4.882-12.311-7.342s-10.6-2.852-12.752,1.454" transform="translate(8468.879 3339.805)" fill="#6b6b01"/>
    <path id="Tracé_217" data-name="Tracé 217" d="M818.133,580.777c-.7-12.161-4.057-25.949-12.04-35.529-5.824-6.984-15.2-8.3-22.8-12.771-9.365-5.511-11.98-14.07-10.333-24.411.414-2.6,1.017-5.8,1.3-9.075a29.985,29.985,0,0,0-3.5.03,59.319,59.319,0,0,0-6.988.4,92.209,92.209,0,0,0-14.654,3.044c-7.776,2.219-15.118,5.594-22.37,9.136,7.2-.772,14.783-.283,20.554,2.709,1.759.912.746,3.285-.927,3.432-4.867.429-9.866-.61-14.768-.61a76.081,76.081,0,0,0-14.756,1.424A52.091,52.091,0,0,0,690,532.979c-.365.369-1.025-.12-.731-.561,6.186-9.207,15.125-15.186,25.685-18.41,1.85-.565,3.858-1.074,5.96-1.5a67.676,67.676,0,0,1,13.735-10.684A118.673,118.673,0,0,1,763.124,487.7q4.068-1.4,8.228-2.513a9.554,9.554,0,0,0-1.609-1.5c-7.662-5.677-20.324-1.029-28.981-.9-8.706.124-18.987-2.912-22.536-11.7-2.275-5.632-.49-11.644,2.867-16.451,8.325-11.927,21.865-20.479,33.633-28.638,5.907-4.095,12.014-8.1,17.378-12.748a55.255,55.255,0,0,0,6.043-5.945c.565-.667-.139.369.6-.806.249-.392.479-.791.727-1.179l.151-.234a.83.83,0,0,1,.128-.226c.019-.071.042-.147.057-.23a12.449,12.449,0,0,0-.2-2.577c-.117-.569-.264-1.126-.433-1.68-.03-.1-.053-.173-.068-.23a5.2,5.2,0,0,1-.23-.467c-.075-.158-.222-.4-.347-.6-.154-.158-.444-.418-.633-.588-.188-.109-.456-.271-.652-.384-.136-.038-.3-.09-.46-.143-.275-.1-.953-.222-1.187-.275-.366-.03-.735-.068-1.1-.071a29.063,29.063,0,0,0-3.575.177c-.045.011-.655.1-1.394.256s-1.465.305-2.193.478c-1.428.343-2.84.742-4.242,1.172-12.368,3.79-23.831,10.288-36.346,13.592-4.807,1.266-10.571,2.208-15.125-.411-5.79-3.33-6.487-10.058-4.762-15.89-.362-3.6.448-7.218-.252-10.8-.882-4.483-4.811-6.48-8.981-7.169-2.957-.49-5.967-.656-8.958-.93a48.2,48.2,0,0,1-10.315.441c-12.424-.863-23.195-7.241-30.865-16.93-7.7-9.727-8.928-20.565-10.891-32.405-1.262-7.595-3.033-15.043-6.239-21.872-2.611-2.675-5.267-5.323-7.964-7.915-3.115-2.479-6.25-4.954-9.482-7.244a3.524,3.524,0,0,0-.527.313c-6.1,4.442-5.527,21.673-10.948,26.928-4.223,4.095-10.691,4.479-16.564,4.781a328.048,328.048,0,0,0-87.361,16.595c-3.85,1.3-7.919,2.678-11.893,1.827-4.705-1.006-8.175-4.882-12.311-7.342a13.308,13.308,0,0,0-4.671-1.661c-3.5,10.1-13.136,17.853-18.685,27.241-8.548,14.451-2.641,34.1,2.8,48.672,2.083,5.579,5.979,7.523,10.5,11.215a22.715,22.715,0,0,1,8.51,17.77c.143,7.651-3.236,15.027-2.814,22.618.354,6.344,5.47,11.814,8.051,17.453,2.84,6.2,5.014,13.046,3.048,19.853a19.66,19.66,0,0,1-14.481,13.4c-12.76,2.6-25.76-6.077-35.653-13.053-12.469-8.793-19.966-21.383-25.809-35.257-2.878-6.826-5.056-13.841-7.538-20.81-2.294-6.434-5.447-11.562-11.528-14.952-7.135-3.982-14.715-7.1-21.823-11.128a41.232,41.232,0,0,1-6.182-2.4c-1.435-.682-2.848-1.432-4.272-2.147q-3.673-.508-7.361-.806c5.93,4.6,12.179,8.808,17.864,13.924,7.188,6.468,20.283,20.836,10.5,30.537-4.6,4.566-13.694,4.306-19.812,5.5q-4.922.955-9.795,2.151c-1.869.456-3.722.964-5.545,1.563-.757.249-1.511.509-2.253.795-.241.09-.479.185-.72.283-.038.019-.132.068-.331.162-.757.358-1.507.731-2.226,1.149-.343.2-1.537,1.006-1.537.968a9.229,9.229,0,0,0-.844.893,1.544,1.544,0,0,1-.034.365,6.6,6.6,0,0,0,1.575,2.678c5.523,7.361,15.009,11.034,17.3,20.757,2.761,11.723-5.568,22.7-10.876,32.375-5.575,10.156-9.7,21.865-10.816,33.43-1.334,13.848-.207,27.862-1.375,41.767-.64,7.632-1.405,15.253-2.208,22.874h465.14c3.666,0,7.674-3.5,11.234-4.37,3.8-.931,7.067-3.383,9.772-6.212a41.656,41.656,0,0,0,8.254-12.775C818.777,593.593,818.5,587.065,818.133,580.777Z" transform="translate(8488.477 3340.172)" fill="#495032"/>
    <path id="Tracé_223" data-name="Tracé 223" d="M523.744,298.5c-4.087-4.392-9.783-7.87-14.726-11.215-7.064-4.784-13.686,6.668-6.672,11.415,2.223,1.5,4.419,3.036,6.578,4.634.908.671,2.091,1.413,3.176,2.238a8.263,8.263,0,0,0-.825,1.857c-9.712,31.223-19.431,62.483-26.905,94.335-3.726,15.879-6.325,31.931-9.531,47.911-3.048,15.193-8.408,29.456-14.417,43.692a234.132,234.132,0,0,0-6.664-22.954,405.084,405.084,0,0,0-15.837-40.825c-12.488-27.742-28.465-53.208-46.367-77.74a8.308,8.308,0,0,0-4.717-3.01,82.668,82.668,0,0,0,1.609-27.832c-.4-3.549-2.754-6.611-6.611-6.611-3.266,0-7.007,3.04-6.611,6.611a72.74,72.74,0,0,1-3.274,31.792c-3.489,10.243-10.341,18.9-13.8,29.158-3.164,9.4-2.837,20.512,3.632,28.457,5.982,7.346,15.788,8.928,22.313,15.4,7.923,7.855,5.673,17.774,6.9,27.813,1.138,9.279,6.242,16.542,12.824,22.9,5.975,5.775,13.37,10.966,16.779,18.81,1.966,4.513,2.788,9.572,3.812,14.357q1.995,9.335,3.959,18.682,8.482,40.347,16.38,80.814a5.564,5.564,0,0,0,3.07,4.212,7.087,7.087,0,0,0,6.48,2.818c3.507-.475,5.316-3.172,5.73-6.495,2.953-23.669,8.488-46.943,14.624-69.964,3.082-11.55,6.107-23.157,9.6-34.59,3.161-10.326,8.472-18.742,13.886-27.96,5.255-8.943,8.4-18.083,8.254-28.54-.128-8.766-2.8-19.6,3.353-26.943,3.225-3.854,6.834-6.95,8.751-11.746,2.177-5.451,2.422-11.629,3.142-17.4q2.243-18.066,3.809-36.2,1.791-20.721,2.682-41.511C528.389,308.849,528.069,303.153,523.744,298.5Z" transform="translate(8576.811 3323.544)" fill="#92c9c2"/>
    <path id="Tracé_224" data-name="Tracé 224" d="M496.965,323.525a299.714,299.714,0,0,0-7.052-36.135c-3.157-3.187-19.876-8.664-22.227-5.187-11.629,17.2-26.457,34.376-44.08,45.666a51.132,51.132,0,0,1-12.888,6.216c-4.894,1.458-9.241,1.273-14.248.961-5.342-.328-8.71,2.415-11.06,6.355a6.783,6.783,0,0,0-6.434,3.066,49.959,49.959,0,0,0-3.168-14.922c-2.995-7.873-15.785-4.457-12.748,3.515a41.17,41.17,0,0,1,2.8,11.486c.079,1,1.1,18.791,14.8,49.746q8.488,16.557,17.676,32.748c7.938,13.954,17.4,30.752,22.584,43.511,3.164,7.787,16.553,35.423,17.875,42.475,1,5.319,2.882,7.365,6.024,3.82,1.778-2.008,15.216-32.221,17.069-41.172,1.846-8.917,10.107-45.764,11.283-55.193,0,0,.991-15.551,3.526-24.238,2.321-7.968,10.831-21.179,13.219-29.087C494.347,352.488,498.924,340.067,496.965,323.525ZM478.182,306.3c-4.969,6.9-6.928,15.238-11.151,22.532-4.287,7.414-11.9,11.147-19.593,14.214a194.318,194.318,0,0,1-52.967,12.9c1.051-2.878,2.132-5.945,2.573-7.6.2.023.407.049.61.083,1.2.121,2.385.237,3.594.26a42.7,42.7,0,0,0,7.429-.6c9.957-1.567,19.111-6.649,27.09-12.616,14.636-10.948,27.346-24.517,38.173-39.266a64.706,64.706,0,0,1,5.609,8.665A7.673,7.673,0,0,0,478.182,306.3Z" transform="translate(8594.511 3309.553)" fill="#f7e3bb"/>
    <path id="Tracé_225" data-name="Tracé 225" d="M542.712,346.871c.814-11.241,5.786-23.575-5.259-31.6a18.857,18.857,0,0,0-13.762-3.5c-2.916.448-5.327,2.17-8.167,2.761-3.809.8-5.722-2.057-7-5.184-2.675-6.54-3.737-14.074-5.315-20.938-1.707-7.436-3.206-14.918-4.879-22.362-1.206-5.361-3.176-10.4-7.595-13.9-4.6-3.643-10.526-5.176-16.112-6.54a165.75,165.75,0,0,0-47.218-4.528,167.615,167.615,0,0,0-23.583,2.829,56.238,56.238,0,0,0-9.682,2.4.852.852,0,0,0-.885.143c-.2.177-.414.339-.625.509a15.713,15.713,0,0,0-4.189,2.867c-5.971,3.421-12.861,5.142-19.043,8.156-3.515,1.714-12.94,9.188-18.229,26.227-1.643,5.289-3.741,45.937-.863,50.733a67.316,67.316,0,0,1,7.621,18.957,2.271,2.271,0,0,0,.343.772,189.563,189.563,0,0,0,6.265,31.524,111.5,111.5,0,0,0,4.17,11.84,51.161,51.161,0,0,0,6.065,13.17c2.339,4.713,4.777,9.407,7.143,14.232a71.645,71.645,0,0,1,4.129,10.262c.81,2.618,26.45,31.75,32.334,36.542,4.566,3.718,14.191,2.147,20.339,2.343a68.846,68.846,0,0,0,11.064-.663,29.944,29.944,0,0,0,6.51-1.028c2.1-.384,4.178-.8,6.2-1.213a141.211,141.211,0,0,0,24.875-7.565,2.809,2.809,0,0,0,.927-.607c8.868-1.6,15.14-8.668,19.058-17.009,2.878-6.129,4.716-12.7,7.8-18.738,2.81-5.5,6.822-10.292,9.5-15.86,2.844-5.907,3.443-12.172,3.368-18.655-.038-3.406-.528-7.048-.049-10.431.569-4.046,4.1-3.684,7.143-5.21C546.826,371.7,541.985,356.989,542.712,346.871Z" transform="translate(8556.539 3198.3)" fill="#f7e3bb"/>
    <path id="Tracé_226" data-name="Tracé 226" d="M374.634,295.395" transform="translate(8627.819 3349.143)" fill="none" stroke="#f7e3bb" stroke-miterlimit="10" stroke-width="1"/>
    <path id="Tracé_266" data-name="Tracé 266" d="M390.627,252.339c1.571.7,3.149,1.56,4.777,2.113a45.656,45.656,0,0,0,4.626,1.1,3.361,3.361,0,0,0,2.577-6.114,44.959,44.959,0,0,0-4-2.592c-1.526-.791-3.236-1.341-4.83-1.989-1.861-.757-4.144.671-4.826,2.37-.693,1.722-.211,4.257,1.673,5.108Z" transform="translate(8666.613 3208.729)" fill="#3c3c3d"/>
    <path id="Tracé_256" data-name="Tracé 256" d="M345.016,244.382c-3.858,9.64-2.984,19.721,1.036,29.188,3.375,7.945,10.469,15.536,19.706,15.461,2.965-.026,3.884-4.958.731-5.383-16.662-2.253-22.253-24.336-18.471-38.437.531-1.982-2.275-2.641-3-.829Z" transform="translate(8539 3205.042)" fill="#3c3c3d"/>
    <path id="Tracé_267" data-name="Tracé 267" d="M343.773,243.962c-2.268,5.044,4.577,7.749,8.54,8.152,4.487.46,13.328-.953,13.909-6.5a1.908,1.908,0,0,0-1.887-1.887c-2.908-.068-5.391,2.679-8.363,3.255-2.547.5-9.467.542-10.183-2.758a1.114,1.114,0,0,0-2.015-.264Z" transform="translate(8541.178 3205.333)" fill="#3c3c3d"/>
    <path id="Tracé_260" data-name="Tracé 260" d="M344.336,245.8a16.345,16.345,0,0,0,1.548,14.447,2.064,2.064,0,0,0,3.718-.486c1.6-4.042,1-8.137.219-12.3-.452-2.422-4.2-1.793-4.216.569-.041,6.871.075,13.656,1.846,20.332.7,2.618,4.6,2.031,4.664-.629a41.6,41.6,0,0,0-1.982-13.679c-.641-2.019-4.076-2.407-4.5,0-1.145,6.547-.946,16.244,5.5,20.121a2.4,2.4,0,0,0,3.5-1.424c1.126-4.155-.271-7.7-2.159-11.4-1.3-2.558-4.912-.693-4.4,1.857a22.847,22.847,0,0,0,4.668,10.043c1.684,2.11,5.338-.682,3.763-2.9a21.563,21.563,0,0,1-3.782-8.424q-2.2.927-4.408,1.857c1.3,2.5,2.49,4.829,1.733,7.7l3.5-1.424c-4.344-2.577-4.17-10.5-3.4-14.764h-4.5a39.056,39.056,0,0,1,1.733,12.436l4.66-.633c-1.808-6.246-2.031-12.609-2.128-19.07l-4.219.573c.7,3.47,1.175,6.649,0,10.077l3.718-.486a12.655,12.655,0,0,1-1.744-11.475c.656-2.14-2.584-2.976-3.319-.915Z" transform="translate(8541.176 3208.64)" fill="#3c3c3d"/>
    <path id="Tracé_261" data-name="Tracé 261" d="M374.36,240.011c-6.841,6.137-16.406,15.728-26.182,9.572a2.567,2.567,0,0,0-3.5.919c-4.344,10.281-3.556,27.211,7.519,33.295,1.567.859,3.579-.919,2.547-2.543-2.7-4.234-5.658-7.723-6.92-12.726a23.428,23.428,0,0,1,1.273-15.446l-3.5.915c12.1,8.058,24.46-2.426,30.752-12.454.795-1.262-.949-2.464-1.989-1.533Z" transform="translate(8538.133 3194.969)" fill="#3c3c3d"/>
    <path id="Tracé_268" data-name="Tracé 268" d="M345.985,245.858c1.582,2.667,6.728,2.822,9.493,2.739a2.172,2.172,0,0,0,.573-4.246,25.31,25.31,0,0,0-7.858-1.307,2.335,2.335,0,0,0-2,3.481,10.023,10.023,0,0,0,6.736,4.95q.316-2.373.64-4.743l-7.406-.079c-3.206-.034-3.206,4.939,0,4.977l5.086.06c1.578.019,2.931.117,4.129-1.07a2.615,2.615,0,0,0,.4-3.07l-.105-.218c-1.085-2.29-4.63-1.085-4.619,1.251v.245c.422-.727.84-1.458,1.258-2.185a12.26,12.26,0,0,1-2.754-.015c-1.13.008-2.26.019-3.391.026v4.977l7.406-.068c2.626-.026,3.4-4.234.64-4.743a5.615,5.615,0,0,1-4.02-2.629q-1,1.74-2,3.485a25.7,25.7,0,0,1,6.709.844v-4.166a16.67,16.67,0,0,1-4.374.034c-1.311-.154-2.528-.7-3.82-.309a1.229,1.229,0,0,0-.723,1.782Z" transform="translate(8542.379 3204.277)" fill="#3c3c3d"/>
    <path id="Tracé_227" data-name="Tracé 227" d="M366.8,348.661c1.759,1.763,18.508,17.186,18.508,17.186s8.374,10.578,35.257,2.645c21.993-6.491,40.788-21.616,47.154-37.9,6.329-16.2,7.93-47.595,7.93-47.595s-14.541,46.273-21.153,53.325S417.478,349.1,417.478,349.1l-35.257,5.726Z" transform="translate(8606.136 3314.83)" fill-rule="evenodd" fill="url(#linear-gradient-8)"/>
    <path id="Tracé_228" data-name="Tracé 228" d="M438.789,304.516a58.185,58.185,0,0,1-39.028,38.847c-4.875,1.4-10.085,2.219-14.229,5.146s-6.732,8.936-3.937,13.17c1.172,1.774,3.051,2.92,4.724,4.234a25.315,25.315,0,0,1,9,24.084c-.87,4.585-3.01,8.811-4.732,13.147-6.261,15.777-5.466,37.209-.471,53.427,4.671-2.449,9.218-10.989,11.238-15.864,3.112-7.523,5.53-13.588,9.034-20.934,3.613-7.58,5.3-19.657,6.389-27.983,1.827-13.98,1.01-25.508,3.831-39.322s7.549-27.5,16-38.78" transform="translate(8643.854 3374.383)" fill="url(#linear-gradient-8)"/>
    <g id="Groupe_137" data-name="Groupe 137" transform="translate(8942.358 3695.769)">
      <path id="Tracé_201" data-name="Tracé 201" d="M372.779,336.723c-3.816-6.48-.821-13.965-3.839-20.55-2.275-4.958-8.009-2.69-9.6,1.53-2.17,5.764,1.375,11.079,4.946,15.314,3.794,4.5,9.049,10.089,11.049,16.173a11.66,11.66,0,0,1,3,2.3c.09-4.882-2.4-9.821-5.376-14.33A2.227,2.227,0,0,0,372.779,336.723Z" transform="translate(-358.682 -296.927)" fill="url(#linear-gradient-18)"/>
      <path id="Tracé_202" data-name="Tracé 202" d="M405.5,336.252c.784-2.72,1.782-5.387,2.306-8.212,1.009-5.444-1.2-16.207-8.842-15.653-8.1.588-5.191,14.127-3.537,18.625,1.691,4.611,3.688,8.966,4.931,13.739.9,3.481,1.4,7.323,3.1,10.537a15.065,15.065,0,0,1,1.281-2.471,18.127,18.127,0,0,1,1.013-2.215c-.463-2.23-.878-4.472-1.341-6.7-.008-.373-.03-.75-.026-1.123a23.815,23.815,0,0,1,1.006-6.141A2.3,2.3,0,0,0,405.5,336.252Z" transform="translate(-262.243 -299.662)" fill="url(#linear-gradient-19)"/>
      <path id="Tracé_203" data-name="Tracé 203" d="M471.659,309.412c-11.757,22.939-11.26,49.7-15.845,74.572-2.3,12.477-5.5,24.943-10.932,36.455a101.619,101.619,0,0,1-9.369,15.6,34.951,34.951,0,0,0-3.488,5.948,128.083,128.083,0,0,0-6.1-19.005c-3.741-9.448-6.2-19.363-10.239-28.68-3.918-9.045-9.132-17.427-14.308-25.786-2.754-4.453-5.722-8.883-8.544-13.389-.064-.441-.113-.882-.139-1.334a2.444,2.444,0,0,0-2.042-2.23q-1.266-2.113-2.441-4.264a25.588,25.588,0,0,0-6.574-10.077.992.992,0,0,0-1.4,1.4c9.787,11.75,5.093,28.6,3.455,42.249-.9,7.553-1.126,15.4,1.688,22.6,2.181,5.579,6.05,10.179,10.424,14.191,4.735,4.344,10.021,8.062,14.59,12.59a41.076,41.076,0,0,1,11.339,20.407c1.266,5.734.354,12.428.184,18.847-.5-1.409-.953-2.84-1.417-4.261-2.215-6.838-4.536-13.72-8.721-19.642-4.144-5.858-9.516-10.3-14.982-14.884-6.664-5.6-9.61-9.026-14.816-15.295a101,101,0,0,1-13.664-22.144c-.422-.976-3.07-1.552-2.754-.554l.659,2.758c4.464,14.172,11.151,24.913,22.743,34.123,2.886,2.294,5.907,4.479,8.834,6.77a.871.871,0,0,0,.332.58c7.824,6.559,9.565,16.749,9.893,26.431.192,5.647.064,11.286.889,16.892.836,5.666,3.2,10.8,4.468,16.335,1.356,5.956.5,12.119.818,18.169a130.781,130.781,0,0,0,1.8,16.21c.5,2.807,1.07,5.673,1.774,8.5a14.7,14.7,0,0,0,1.575,6.672,9.6,9.6,0,0,0,.994,1.48c1.352,3.349,3.835,6.024,7.689,5.647a3.272,3.272,0,0,0,.791-.184l.038.252c.215-.049.429-.1.637-.162a21.643,21.643,0,0,0,2.151-.829c-1.247-8.473-2.532-16.941-3.741-25.417-.795-5.56-.979-10.089,1.936-15.1,1.6-2.75,3.387-5.259,4.479-8.273a19.725,19.725,0,0,0,.637-12.307c-.384-6.491-.734-12.993-1.006-19.477q-.282-6.837-.275-13.682c0-4.773-.463-9.923,1.56-14.376,3.014-6.626,8.209-12.307,11.52-18.874a121.759,121.759,0,0,0,8.017-20.656c8.992-30.74,6.77-64.159,18.478-94.131C473.6,309.163,472.1,308.541,471.659,309.412ZM411.2,451.119c-.042-.158-.079-.316-.121-.475q.458.768.885,1.548C411.726,451.827,411.478,451.469,411.2,451.119Zm2.336-42.656q.661,1.678,1.292,3.375c-.354-.863-.712-1.729-1.066-2.6Z" transform="translate(-339.723 -308.994)" fill="url(#linear-gradient-20)"/>
    </g>
    <path id="Tracé_257" data-name="Tracé 257" d="M265.373,322.377c2.965-9.248,4.464-13.75,10.341-21.484,5.783-7.614,13.9-13.057,21.921-18.275,17.683-11.52,36.282-22.912,57.156-26.016,5.937-.885,12.251-1.021,17.676,1.548,0,0,2.2,3.481,3.082,12,.433,4.2,1.71,9.859-1.205,12.918-4.573,4.8-9.177,9.625-14.47,13.618a98.861,98.861,0,0,1-13.208,8.107c-25.881,13.735-50.82,25.244-80.117,24.924Z" transform="translate(8325.473 3240.195)" fill="url(#linear-gradient-8)"/>
    <g id="Groupe_138" data-name="Groupe 138" transform="translate(8551.669 3448.855)">
      <path id="Tracé_205" data-name="Tracé 205" d="M310.988,257.414c-.211-2.543-3.1-5.1-4.886-6.679-2.147-1.9-4.75-3.266-7.237-1.077a1.891,1.891,0,0,0-.207.222,2.249,2.249,0,0,0-.753,3.583c.723.8,1.492,1.556,2.287,2.283a12.559,12.559,0,0,0-1.511,5.8c-.211.316-.418.633-.652.931-5.285-2.08-7.625,6.894-2.1,6.57,1.846-.109,3.451-1.56,4.731-3.074,3.225,2.181,7.327-1.82,7.493-5.327a2.773,2.773,0,0,0,.979-.181A2.879,2.879,0,0,0,310.988,257.414Z" transform="translate(-150.414 -229.383)" fill="#3c3c3d"/>
      <path id="Tracé_206" data-name="Tracé 206" d="M261.612,315.691c3.021-13.3,8.567-26.465,17.525-36.885a68.641,68.641,0,0,1,15.22-12.846,2.161,2.161,0,0,0,.814-.339,107.359,107.359,0,0,1,17.182-9.346l-.049.06c-1.639,2.079.377,5.361,2.987,3.873,5.786-3.3,10.567-6.163,17.427-6.619,6.453-.429,13.016-.079,19.476-.049,6.54.03,12.978.015,19.367,1.612a132.278,132.278,0,0,1,13.076,4.351c.388.475.765.957,1.126,1.465a2.382,2.382,0,0,0,3.737.121,1.434,1.434,0,0,0,.524-2.592c-.422-.286-.848-.565-1.277-.844-10.593-13.671-29.29-15.235-45.436-13.746a108,108,0,0,0-27.116,6.114,2.185,2.185,0,0,0-.791.09c-7.659,2.328-14.636,6.7-21.413,10.868a75.2,75.2,0,0,0-17.97,14.711c-9.467,10.985-15.468,24.769-18.659,38.829A98.571,98.571,0,0,0,269.787,387.9c.023-.049.038-.094.06-.147a2.739,2.739,0,0,1,1.175-1.145c.237-.731.467-1.462.652-2.211a4.174,4.174,0,0,1,.433-1.059A94.057,94.057,0,0,1,261.612,315.691Z" transform="translate(-254.974 -243.451)" fill="#3c3c3d"/>
      <path id="Tracé_207" data-name="Tracé 207" d="M387.12,261.165a2.282,2.282,0,0,0-2.091-2.565c.286-.784.569-1.567.833-2.358a2.226,2.226,0,0,0-1.541-2.709c-2.863-.746-4.581,1.085-5.915,3.285a2.553,2.553,0,0,0-4.381-.087,72.744,72.744,0,0,0-4.1,6.6,2.273,2.273,0,0,0-.927-.655,1.892,1.892,0,0,0-.539-2.26c.29-.448.584-.889.874-1.337,1.341-2.1-1.752-4.5-3.462-2.671-.931.991-1.842,2-2.746,3.006a2.67,2.67,0,0,0-4.894-1.707,51.619,51.619,0,0,1-5.986,7.455A2.179,2.179,0,0,0,349.2,264.1c-1.782.855-3.5,1.823-5.18,2.848-.015-1.545-1.5-3-3.179-1.91q-3.939,2.554-7.851,5.15,1.588-1.379,3.176-2.75c2.012-1.744-.55-4.457-2.671-3.462a128.547,128.547,0,0,0-14.892,8.363c.58-1.673-1.5-3.9-3.228-2.648-1.42,1.025-2.78,2.1-4.106,3.213q.441-.74.851-1.5c.5-.467,1.006-.938,1.511-1.409a1.9,1.9,0,0,0,.433-2.441c.128-.283.271-.554.4-.84.784-1.812-.976-4.374-3.018-3.014-9.572,6.382-17.9,14.217-25.888,22.415-2.388.426-4.615,3.677-5.964,5.135a106.852,106.852,0,0,0-14.161,19.356c-1.2,2.087,1.872,4.694,3.462,2.667l.516-.663a2.129,2.129,0,0,0,.358,1.929c-.2.264-.388.524-.576.791l-1.567-.113c-2.987-.211-3.405,3.718-1.3,5.033-.445.938-.84,1.9-1.194,2.889-1.33.049-2.663.041-4-.042-2.833-.177-2.822,4.231,0,4.408.411.023.825.034,1.236.049a2.383,2.383,0,0,0,.7,3.2,2.284,2.284,0,0,0,1.835,1.345,31.35,31.35,0,0,0,6.186.154c9.245,1.337,18.723-2.234,27.252-5.854a198.3,198.3,0,0,0,20.833-10.337q2.328-.814,4.645-1.669,3.244-1.2,6.457-2.509c-4.253,2.464-8.578,4.807-12.831,7.286-9.015,5.252-17.883,10.891-28.126,13.419-1.247.309-1.021,2.468.313,2.3,9.685-1.217,23.688-6.065,32.4-10.22,38.343-18.29,63.526-41.82,70.292-54.866C393.016,268.435,388.209,261.647,387.12,261.165Z" transform="translate(-243.838 -216.023)" fill="#3c3c3d"/>
    </g>
    <path id="Tracé_243" data-name="Tracé 243" d="M393.7,271.2l2.645,34.007s10.575,2.422,11.456-2.863-1.763-6.834.222-12.782,8.593-13.219,2.645-21.375S394.145,259.743,393.7,271.2Z" transform="translate(8680.59 3257.58)" fill="url(#linear-gradient-8)"/>
    <path id="Tracé_244" data-name="Tracé 244" d="M353.4,270.24s-2.577,14.006-2.863,20.049c-.663,13.882,62.581-18.29,100.92-5.948s31.388,42.053,58.832,45.613c11.9,1.541-44.728-84.393-44.728-84.393L362.438,265.391Z" transform="translate(8561.135 3211.242)" fill="url(#linear-gradient-8)"/>
    <path id="Tracé_245" data-name="Tracé 245" d="M541.232,308.507a4.592,4.592,0,0,0-4.506-4.5c-3.59-.166-5.553,1.854-8.156,4.091l-.011.011a7.854,7.854,0,0,0-1.217-7.176c-.832-1-1.575-2.012-2.268-3.036-.554-5.221-3.315-10.7-6.08-14.786a6.934,6.934,0,0,0-2.652-2.373c.083-2.083.083-4.17.026-6.261a3.614,3.614,0,0,0,1.108-2.513l.034-.584a3.442,3.442,0,0,0-.633-2.2,7.178,7.178,0,0,0-2.279-4.34q-1.983-1.9-3.971-3.8c.045-.3.1-.592.139-.889.343-2.4-2.641-4.619-4.377-3.2-.8-.776-1.612-1.548-2.407-2.328-.784-.833-1.59-1.639-2.437-2.411a7.477,7.477,0,0,0-9.226-.9,6.543,6.543,0,0,0-3.341-3.639q-3.611-1.763-7.226-3.515a8.456,8.456,0,0,0-10.077,2.283c-.787.008-1.571.019-2.358.03a7.121,7.121,0,0,0-5.779-2.7c-10.514-.219-21.432-.377-31.8,1.895a7.727,7.727,0,0,0-.079-1.126c-.5-3.349-3.65-7.018-7.433-6.562-19.944,2.407-39.857,6.009-58.026,14.959-7.436,3.662-19.088,9.192-21.514,17.86-1.5,5.331,1.153,10.575,2.727,15.57,1.755,5.568,3.232,11.23,4.758,16.866,1.349,4.973,7.817,3.809,8.808-.569.614-.117,1.409-.068,1.763-.573,20.189-28.83,76.817-15.389,105.463-28.171,3.44-1.533,7.73-1.349,13.087,1.865,5.063,3.036,11.313,7.836,14.432,12.051,2.837,9.071,5.975,18.041,8.544,27.192,1.059,3.767,1.925,7.832,5.169,10.375a23.879,23.879,0,0,0,7.271,3.424,118.641,118.641,0,0,0,10.371,21.967,1.421,1.421,0,0,0,1.774.512,1.056,1.056,0,0,0,.9-.667,1.079,1.079,0,0,0,.188-.5,142.252,142.252,0,0,0,.1-18.625c-.358-7.572,5.519-12.27,8.307-11.829,1.356.211.731-3.858.083-4.815A9.026,9.026,0,0,0,541.232,308.507Zm-182.453-29.4a10.156,10.156,0,0,1-.9-3.869c.2-2.14,4.607-4.34,7.011-5.67A105.615,105.615,0,0,0,358.779,279.111Z" transform="translate(8543.723 3190.15)" fill="#3c3c3d"/>
    <path id="Tracé_276" data-name="Tracé 276" d="M45.215,276.358S80.9,515.834,189.4,583.777c140.279,87.843,184.188-34,425.539,165.317H45.215Z" transform="translate(6831.308 3215.463)" fill="#0e0f00"/>
  </g>
</svg>
